<mxfile host="app.diagrams.net" modified="2022-08-10T13:58:00.231Z" agent="5.0 (Windows NT 10.0; Win64; x64) AppleWebKit/537.36 (KHTML, like Gecko) Chrome/104.0.5112.81 Safari/537.36 Edg/104.0.1293.47" etag="xKi2dHgidFdTINayHtcU" version="20.2.3" type="github" pages="3">
  <diagram name="Structure" id="c7558073-3199-34d8-9f00-42111426c3f3">
    <mxGraphModel dx="2357" dy="500" grid="1" gridSize="10" guides="1" tooltips="1" connect="1" arrows="1" fold="1" page="1" pageScale="1" pageWidth="826" pageHeight="1169" background="none" math="0" shadow="0">
      <root>
        <mxCell id="0" />
        <mxCell id="1" parent="0" />
        <mxCell id="3" value="Top Activity 1" style="whiteSpace=wrap;align=center;verticalAlign=middle;fontStyle=1;strokeWidth=3;fillColor=#FFFFCC" parent="1" vertex="1">
          <mxGeometry x="-720" y="120" width="130" height="40" as="geometry" />
        </mxCell>
        <mxCell id="4" value="Sub Activity 1-2" style="whiteSpace=wrap;align=center;verticalAlign=middle;fontStyle=1;strokeWidth=3;fillColor=#FFFFCC" parent="1" vertex="1">
          <mxGeometry x="-640" y="280" width="120" height="40" as="geometry" />
        </mxCell>
        <mxCell id="ptxm0m2oNySlggKpE-qS-96" value="Sub Activity 1-1" style="whiteSpace=wrap;align=center;verticalAlign=middle;fontStyle=1;strokeWidth=3;fillColor=#FFFFCC" vertex="1" parent="1">
          <mxGeometry x="-640" y="200" width="120" height="40" as="geometry" />
        </mxCell>
        <mxCell id="ptxm0m2oNySlggKpE-qS-98" value="Sub Activity 1-3" style="whiteSpace=wrap;align=center;verticalAlign=middle;fontStyle=1;strokeWidth=3;fillColor=#FFFFCC" vertex="1" parent="1">
          <mxGeometry x="-640" y="360" width="120" height="40" as="geometry" />
        </mxCell>
        <mxCell id="ptxm0m2oNySlggKpE-qS-100" value="Order Index: 1" style="rounded=1;whiteSpace=wrap;html=1;" vertex="1" parent="1">
          <mxGeometry x="-590" y="125" width="90" height="30" as="geometry" />
        </mxCell>
        <mxCell id="ptxm0m2oNySlggKpE-qS-101" value="Order Index: 1" style="rounded=1;whiteSpace=wrap;html=1;" vertex="1" parent="1">
          <mxGeometry x="-520" y="205" width="90" height="30" as="geometry" />
        </mxCell>
        <mxCell id="ptxm0m2oNySlggKpE-qS-102" value="Order Index: 2" style="rounded=1;whiteSpace=wrap;html=1;" vertex="1" parent="1">
          <mxGeometry x="-520" y="285" width="90" height="30" as="geometry" />
        </mxCell>
        <mxCell id="ptxm0m2oNySlggKpE-qS-103" value="Order Index: 3" style="rounded=1;whiteSpace=wrap;html=1;" vertex="1" parent="1">
          <mxGeometry x="-520" y="365" width="90" height="30" as="geometry" />
        </mxCell>
        <mxCell id="ptxm0m2oNySlggKpE-qS-104" value="Top Activity 2" style="whiteSpace=wrap;align=center;verticalAlign=middle;fontStyle=1;strokeWidth=3;fillColor=#FFFFCC" vertex="1" parent="1">
          <mxGeometry x="-360" y="120" width="130" height="40" as="geometry" />
        </mxCell>
        <mxCell id="ptxm0m2oNySlggKpE-qS-105" value="Sub Activity 2-2" style="whiteSpace=wrap;align=center;verticalAlign=middle;fontStyle=1;strokeWidth=3;fillColor=#FFFFCC" vertex="1" parent="1">
          <mxGeometry x="-280" y="280" width="120" height="40" as="geometry" />
        </mxCell>
        <mxCell id="ptxm0m2oNySlggKpE-qS-106" value="Sub Activity 2-1" style="whiteSpace=wrap;align=center;verticalAlign=middle;fontStyle=1;strokeWidth=3;fillColor=#FFFFCC" vertex="1" parent="1">
          <mxGeometry x="-280" y="200" width="120" height="40" as="geometry" />
        </mxCell>
        <mxCell id="ptxm0m2oNySlggKpE-qS-107" value="Sub Activity 2-3" style="whiteSpace=wrap;align=center;verticalAlign=middle;fontStyle=1;strokeWidth=3;fillColor=#FFFFCC" vertex="1" parent="1">
          <mxGeometry x="-280" y="360" width="120" height="40" as="geometry" />
        </mxCell>
        <mxCell id="ptxm0m2oNySlggKpE-qS-108" value="Order Index: 1" style="rounded=1;whiteSpace=wrap;html=1;" vertex="1" parent="1">
          <mxGeometry x="-230" y="125" width="90" height="30" as="geometry" />
        </mxCell>
        <mxCell id="ptxm0m2oNySlggKpE-qS-109" value="Order Index: 1" style="rounded=1;whiteSpace=wrap;html=1;" vertex="1" parent="1">
          <mxGeometry x="-160" y="205" width="90" height="30" as="geometry" />
        </mxCell>
        <mxCell id="ptxm0m2oNySlggKpE-qS-110" value="Order Index: 1" style="rounded=1;whiteSpace=wrap;html=1;" vertex="1" parent="1">
          <mxGeometry x="-160" y="285" width="90" height="30" as="geometry" />
        </mxCell>
        <mxCell id="ptxm0m2oNySlggKpE-qS-111" value="Order Index: 2" style="rounded=1;whiteSpace=wrap;html=1;" vertex="1" parent="1">
          <mxGeometry x="-160" y="365" width="90" height="30" as="geometry" />
        </mxCell>
        <mxCell id="ptxm0m2oNySlggKpE-qS-112" value="Top Activity 3" style="whiteSpace=wrap;align=center;verticalAlign=middle;fontStyle=1;strokeWidth=3;fillColor=#FFFFCC" vertex="1" parent="1">
          <mxGeometry y="120" width="130" height="40" as="geometry" />
        </mxCell>
        <mxCell id="ptxm0m2oNySlggKpE-qS-113" value="Sub Activity 3-2" style="whiteSpace=wrap;align=center;verticalAlign=middle;fontStyle=1;strokeWidth=3;fillColor=#FFFFCC" vertex="1" parent="1">
          <mxGeometry x="80" y="280" width="120" height="40" as="geometry" />
        </mxCell>
        <mxCell id="ptxm0m2oNySlggKpE-qS-114" value="Sub Activity 3-1" style="whiteSpace=wrap;align=center;verticalAlign=middle;fontStyle=1;strokeWidth=3;fillColor=#FFFFCC" vertex="1" parent="1">
          <mxGeometry x="80" y="200" width="120" height="40" as="geometry" />
        </mxCell>
        <mxCell id="ptxm0m2oNySlggKpE-qS-115" value="Sub Activity 3-3" style="whiteSpace=wrap;align=center;verticalAlign=middle;fontStyle=1;strokeWidth=3;fillColor=#FFFFCC" vertex="1" parent="1">
          <mxGeometry x="80" y="360" width="120" height="40" as="geometry" />
        </mxCell>
        <mxCell id="ptxm0m2oNySlggKpE-qS-116" value="Order Index: 2" style="rounded=1;whiteSpace=wrap;html=1;" vertex="1" parent="1">
          <mxGeometry x="130" y="125" width="90" height="30" as="geometry" />
        </mxCell>
        <mxCell id="ptxm0m2oNySlggKpE-qS-117" value="Order Index: 1" style="rounded=1;whiteSpace=wrap;html=1;" vertex="1" parent="1">
          <mxGeometry x="200" y="205" width="90" height="30" as="geometry" />
        </mxCell>
        <mxCell id="ptxm0m2oNySlggKpE-qS-118" value="Order Index: 2" style="rounded=1;whiteSpace=wrap;html=1;" vertex="1" parent="1">
          <mxGeometry x="200" y="285" width="90" height="30" as="geometry" />
        </mxCell>
        <mxCell id="ptxm0m2oNySlggKpE-qS-119" value="Order Index: 2" style="rounded=1;whiteSpace=wrap;html=1;" vertex="1" parent="1">
          <mxGeometry x="200" y="365" width="90" height="30" as="geometry" />
        </mxCell>
        <mxCell id="ptxm0m2oNySlggKpE-qS-120" value="ActivityStructure" style="text;strokeColor=none;fillColor=none;html=1;fontSize=24;fontStyle=1;verticalAlign=middle;align=center;" vertex="1" parent="1">
          <mxGeometry x="-270" y="40" width="100" height="40" as="geometry" />
        </mxCell>
      </root>
    </mxGraphModel>
  </diagram>
  <diagram id="1JrETxcAfH9c-kQsxrs2" name="Bottom Up">
    <mxGraphModel dx="2062" dy="396" grid="1" gridSize="10" guides="1" tooltips="1" connect="1" arrows="1" fold="1" page="1" pageScale="1" pageWidth="850" pageHeight="1100" math="0" shadow="0">
      <root>
        <mxCell id="0" />
        <mxCell id="1" parent="0" />
        <mxCell id="MkZrQRVodV6hCObbAuwH-1" value="Top Activity 1" style="whiteSpace=wrap;align=center;verticalAlign=middle;fontStyle=1;strokeWidth=3;fillColor=#FFFFCC" vertex="1" parent="1">
          <mxGeometry x="-520" y="130" width="130" height="40" as="geometry" />
        </mxCell>
        <mxCell id="MkZrQRVodV6hCObbAuwH-2" value="Sub Activity 1-2" style="whiteSpace=wrap;align=center;verticalAlign=middle;fontStyle=1;strokeWidth=3;fillColor=#99FFFF;" vertex="1" parent="1">
          <mxGeometry x="-440" y="290" width="120" height="40" as="geometry" />
        </mxCell>
        <mxCell id="MkZrQRVodV6hCObbAuwH-3" value="Sub Activity 1-1" style="whiteSpace=wrap;align=center;verticalAlign=middle;fontStyle=1;strokeWidth=3;fillColor=#99FFFF;" vertex="1" parent="1">
          <mxGeometry x="-440" y="210" width="120" height="40" as="geometry" />
        </mxCell>
        <mxCell id="MkZrQRVodV6hCObbAuwH-4" value="Sub Activity 1-3" style="whiteSpace=wrap;align=center;verticalAlign=middle;fontStyle=1;strokeWidth=3;fillColor=#99FFFF;" vertex="1" parent="1">
          <mxGeometry x="-440" y="370" width="120" height="40" as="geometry" />
        </mxCell>
        <mxCell id="MkZrQRVodV6hCObbAuwH-5" value="Order Index: 1" style="rounded=1;whiteSpace=wrap;html=1;" vertex="1" parent="1">
          <mxGeometry x="-390" y="135" width="90" height="30" as="geometry" />
        </mxCell>
        <mxCell id="MkZrQRVodV6hCObbAuwH-6" value="Order Index: 1" style="rounded=1;whiteSpace=wrap;html=1;" vertex="1" parent="1">
          <mxGeometry x="-320" y="215" width="90" height="30" as="geometry" />
        </mxCell>
        <mxCell id="MkZrQRVodV6hCObbAuwH-7" value="Order Index: 2" style="rounded=1;whiteSpace=wrap;html=1;" vertex="1" parent="1">
          <mxGeometry x="-320" y="295" width="90" height="30" as="geometry" />
        </mxCell>
        <mxCell id="MkZrQRVodV6hCObbAuwH-8" value="Order Index: 3" style="rounded=1;whiteSpace=wrap;html=1;" vertex="1" parent="1">
          <mxGeometry x="-320" y="375" width="90" height="30" as="geometry" />
        </mxCell>
        <mxCell id="MkZrQRVodV6hCObbAuwH-9" value="Top Activity 2" style="whiteSpace=wrap;align=center;verticalAlign=middle;fontStyle=1;strokeWidth=3;fillColor=#FFFFCC" vertex="1" parent="1">
          <mxGeometry x="-160" y="130" width="130" height="40" as="geometry" />
        </mxCell>
        <mxCell id="MkZrQRVodV6hCObbAuwH-10" value="Sub Activity 2-2" style="whiteSpace=wrap;align=center;verticalAlign=middle;fontStyle=1;strokeWidth=3;fillColor=#99FFFF;" vertex="1" parent="1">
          <mxGeometry x="-80" y="290" width="120" height="40" as="geometry" />
        </mxCell>
        <mxCell id="MkZrQRVodV6hCObbAuwH-11" value="Sub Activity 2-1" style="whiteSpace=wrap;align=center;verticalAlign=middle;fontStyle=1;strokeWidth=3;fillColor=#99FFFF;" vertex="1" parent="1">
          <mxGeometry x="-80" y="210" width="120" height="40" as="geometry" />
        </mxCell>
        <mxCell id="MkZrQRVodV6hCObbAuwH-12" value="Sub Activity 2-3" style="whiteSpace=wrap;align=center;verticalAlign=middle;fontStyle=1;strokeWidth=3;fillColor=#99FFFF;" vertex="1" parent="1">
          <mxGeometry x="-80" y="370" width="120" height="40" as="geometry" />
        </mxCell>
        <mxCell id="MkZrQRVodV6hCObbAuwH-13" value="Order Index: 1" style="rounded=1;whiteSpace=wrap;html=1;" vertex="1" parent="1">
          <mxGeometry x="-30" y="135" width="90" height="30" as="geometry" />
        </mxCell>
        <mxCell id="MkZrQRVodV6hCObbAuwH-14" value="Order Index: 1" style="rounded=1;whiteSpace=wrap;html=1;" vertex="1" parent="1">
          <mxGeometry x="40" y="215" width="90" height="30" as="geometry" />
        </mxCell>
        <mxCell id="MkZrQRVodV6hCObbAuwH-15" value="Order Index: 1" style="rounded=1;whiteSpace=wrap;html=1;" vertex="1" parent="1">
          <mxGeometry x="40" y="295" width="90" height="30" as="geometry" />
        </mxCell>
        <mxCell id="MkZrQRVodV6hCObbAuwH-16" value="Order Index: 2" style="rounded=1;whiteSpace=wrap;html=1;" vertex="1" parent="1">
          <mxGeometry x="40" y="375" width="90" height="30" as="geometry" />
        </mxCell>
        <mxCell id="MkZrQRVodV6hCObbAuwH-17" value="Top Activity 3" style="whiteSpace=wrap;align=center;verticalAlign=middle;fontStyle=1;strokeWidth=3;fillColor=#FFFFCC" vertex="1" parent="1">
          <mxGeometry x="200" y="130" width="130" height="40" as="geometry" />
        </mxCell>
        <mxCell id="MkZrQRVodV6hCObbAuwH-18" value="Sub Activity 3-2" style="whiteSpace=wrap;align=center;verticalAlign=middle;fontStyle=1;strokeWidth=3;fillColor=#FFFFCC" vertex="1" parent="1">
          <mxGeometry x="280" y="290" width="120" height="40" as="geometry" />
        </mxCell>
        <mxCell id="MkZrQRVodV6hCObbAuwH-19" value="Sub Activity 3-1" style="whiteSpace=wrap;align=center;verticalAlign=middle;fontStyle=1;strokeWidth=3;fillColor=#FFFFCC" vertex="1" parent="1">
          <mxGeometry x="280" y="210" width="120" height="40" as="geometry" />
        </mxCell>
        <mxCell id="MkZrQRVodV6hCObbAuwH-20" value="Sub Activity 3-3" style="whiteSpace=wrap;align=center;verticalAlign=middle;fontStyle=1;strokeWidth=3;fillColor=#FFFFCC" vertex="1" parent="1">
          <mxGeometry x="280" y="370" width="120" height="40" as="geometry" />
        </mxCell>
        <mxCell id="MkZrQRVodV6hCObbAuwH-21" value="Order Index: 2" style="rounded=1;whiteSpace=wrap;html=1;" vertex="1" parent="1">
          <mxGeometry x="330" y="135" width="90" height="30" as="geometry" />
        </mxCell>
        <mxCell id="MkZrQRVodV6hCObbAuwH-22" value="Order Index: 1" style="rounded=1;whiteSpace=wrap;html=1;" vertex="1" parent="1">
          <mxGeometry x="400" y="215" width="90" height="30" as="geometry" />
        </mxCell>
        <mxCell id="MkZrQRVodV6hCObbAuwH-23" value="Order Index: 2" style="rounded=1;whiteSpace=wrap;html=1;" vertex="1" parent="1">
          <mxGeometry x="400" y="295" width="90" height="30" as="geometry" />
        </mxCell>
        <mxCell id="MkZrQRVodV6hCObbAuwH-24" value="Order Index: 2" style="rounded=1;whiteSpace=wrap;html=1;" vertex="1" parent="1">
          <mxGeometry x="400" y="375" width="90" height="30" as="geometry" />
        </mxCell>
        <mxCell id="MkZrQRVodV6hCObbAuwH-25" value="Bottom Up" style="text;strokeColor=none;fillColor=none;html=1;fontSize=24;fontStyle=1;verticalAlign=middle;align=center;" vertex="1" parent="1">
          <mxGeometry x="-70" y="50" width="100" height="40" as="geometry" />
        </mxCell>
        <mxCell id="MkZrQRVodV6hCObbAuwH-26" value="Top Activity 1" style="whiteSpace=wrap;align=center;verticalAlign=middle;fontStyle=1;strokeWidth=3;fillColor=#FFFFCC" vertex="1" parent="1">
          <mxGeometry x="-520" y="490" width="130" height="40" as="geometry" />
        </mxCell>
        <mxCell id="MkZrQRVodV6hCObbAuwH-27" value="Sub Activity 1-2" style="whiteSpace=wrap;align=center;verticalAlign=middle;fontStyle=1;strokeWidth=3;fillColor=#99FFFF;" vertex="1" parent="1">
          <mxGeometry x="-440" y="650" width="120" height="40" as="geometry" />
        </mxCell>
        <mxCell id="MkZrQRVodV6hCObbAuwH-28" value="Sub Activity 1-1" style="whiteSpace=wrap;align=center;verticalAlign=middle;fontStyle=1;strokeWidth=3;fillColor=#99FFCC;" vertex="1" parent="1">
          <mxGeometry x="-440" y="570" width="120" height="40" as="geometry" />
        </mxCell>
        <mxCell id="MkZrQRVodV6hCObbAuwH-29" value="Sub Activity 1-3" style="whiteSpace=wrap;align=center;verticalAlign=middle;fontStyle=1;strokeWidth=3;fillColor=#99FFCC;" vertex="1" parent="1">
          <mxGeometry x="-440" y="730" width="120" height="40" as="geometry" />
        </mxCell>
        <mxCell id="MkZrQRVodV6hCObbAuwH-30" value="Order Index: 1" style="rounded=1;whiteSpace=wrap;html=1;" vertex="1" parent="1">
          <mxGeometry x="-390" y="495" width="90" height="30" as="geometry" />
        </mxCell>
        <mxCell id="MkZrQRVodV6hCObbAuwH-31" value="Order Index: 1" style="rounded=1;whiteSpace=wrap;html=1;" vertex="1" parent="1">
          <mxGeometry x="-320" y="575" width="90" height="30" as="geometry" />
        </mxCell>
        <mxCell id="MkZrQRVodV6hCObbAuwH-32" value="Order Index: 2" style="rounded=1;whiteSpace=wrap;html=1;" vertex="1" parent="1">
          <mxGeometry x="-320" y="655" width="90" height="30" as="geometry" />
        </mxCell>
        <mxCell id="MkZrQRVodV6hCObbAuwH-33" value="Order Index: 3" style="rounded=1;whiteSpace=wrap;html=1;" vertex="1" parent="1">
          <mxGeometry x="-320" y="735" width="90" height="30" as="geometry" />
        </mxCell>
        <mxCell id="MkZrQRVodV6hCObbAuwH-34" value="Top Activity 2" style="whiteSpace=wrap;align=center;verticalAlign=middle;fontStyle=1;strokeWidth=3;fillColor=#FFFFCC" vertex="1" parent="1">
          <mxGeometry x="-160" y="490" width="130" height="40" as="geometry" />
        </mxCell>
        <mxCell id="MkZrQRVodV6hCObbAuwH-35" value="Sub Activity 2-2" style="whiteSpace=wrap;align=center;verticalAlign=middle;fontStyle=1;strokeWidth=3;fillColor=#99FFCC;" vertex="1" parent="1">
          <mxGeometry x="-80" y="650" width="120" height="40" as="geometry" />
        </mxCell>
        <mxCell id="MkZrQRVodV6hCObbAuwH-36" value="Sub Activity 2-1" style="whiteSpace=wrap;align=center;verticalAlign=middle;fontStyle=1;strokeWidth=3;fillColor=#99FFFF;" vertex="1" parent="1">
          <mxGeometry x="-80" y="570" width="120" height="40" as="geometry" />
        </mxCell>
        <mxCell id="MkZrQRVodV6hCObbAuwH-37" value="Sub Activity 2-3" style="whiteSpace=wrap;align=center;verticalAlign=middle;fontStyle=1;strokeWidth=3;fillColor=#99FFFF;" vertex="1" parent="1">
          <mxGeometry x="-80" y="730" width="120" height="40" as="geometry" />
        </mxCell>
        <mxCell id="MkZrQRVodV6hCObbAuwH-38" value="Order Index: 1" style="rounded=1;whiteSpace=wrap;html=1;" vertex="1" parent="1">
          <mxGeometry x="-30" y="495" width="90" height="30" as="geometry" />
        </mxCell>
        <mxCell id="MkZrQRVodV6hCObbAuwH-39" value="Order Index: 1" style="rounded=1;whiteSpace=wrap;html=1;" vertex="1" parent="1">
          <mxGeometry x="40" y="575" width="90" height="30" as="geometry" />
        </mxCell>
        <mxCell id="MkZrQRVodV6hCObbAuwH-40" value="Order Index: 1" style="rounded=1;whiteSpace=wrap;html=1;" vertex="1" parent="1">
          <mxGeometry x="40" y="655" width="90" height="30" as="geometry" />
        </mxCell>
        <mxCell id="MkZrQRVodV6hCObbAuwH-41" value="Order Index: 2" style="rounded=1;whiteSpace=wrap;html=1;" vertex="1" parent="1">
          <mxGeometry x="40" y="735" width="90" height="30" as="geometry" />
        </mxCell>
        <mxCell id="MkZrQRVodV6hCObbAuwH-42" value="Top Activity 3" style="whiteSpace=wrap;align=center;verticalAlign=middle;fontStyle=1;strokeWidth=3;fillColor=#FFFFCC" vertex="1" parent="1">
          <mxGeometry x="200" y="490" width="130" height="40" as="geometry" />
        </mxCell>
        <mxCell id="MkZrQRVodV6hCObbAuwH-43" value="Sub Activity 3-2" style="whiteSpace=wrap;align=center;verticalAlign=middle;fontStyle=1;strokeWidth=3;fillColor=#FFFFCC" vertex="1" parent="1">
          <mxGeometry x="280" y="650" width="120" height="40" as="geometry" />
        </mxCell>
        <mxCell id="MkZrQRVodV6hCObbAuwH-44" value="Sub Activity 3-1" style="whiteSpace=wrap;align=center;verticalAlign=middle;fontStyle=1;strokeWidth=3;fillColor=#FFFFCC" vertex="1" parent="1">
          <mxGeometry x="280" y="570" width="120" height="40" as="geometry" />
        </mxCell>
        <mxCell id="MkZrQRVodV6hCObbAuwH-45" value="Sub Activity 3-3" style="whiteSpace=wrap;align=center;verticalAlign=middle;fontStyle=1;strokeWidth=3;fillColor=#FFFFCC" vertex="1" parent="1">
          <mxGeometry x="280" y="730" width="120" height="40" as="geometry" />
        </mxCell>
        <mxCell id="MkZrQRVodV6hCObbAuwH-46" value="Order Index: 2" style="rounded=1;whiteSpace=wrap;html=1;" vertex="1" parent="1">
          <mxGeometry x="330" y="495" width="90" height="30" as="geometry" />
        </mxCell>
        <mxCell id="MkZrQRVodV6hCObbAuwH-47" value="Order Index: 1" style="rounded=1;whiteSpace=wrap;html=1;" vertex="1" parent="1">
          <mxGeometry x="400" y="575" width="90" height="30" as="geometry" />
        </mxCell>
        <mxCell id="MkZrQRVodV6hCObbAuwH-48" value="Order Index: 2" style="rounded=1;whiteSpace=wrap;html=1;" vertex="1" parent="1">
          <mxGeometry x="400" y="655" width="90" height="30" as="geometry" />
        </mxCell>
        <mxCell id="MkZrQRVodV6hCObbAuwH-49" value="Order Index: 2" style="rounded=1;whiteSpace=wrap;html=1;" vertex="1" parent="1">
          <mxGeometry x="400" y="735" width="90" height="30" as="geometry" />
        </mxCell>
        <mxCell id="MkZrQRVodV6hCObbAuwH-50" value="Top Activity 1" style="whiteSpace=wrap;align=center;verticalAlign=middle;fontStyle=1;strokeWidth=3;fillColor=#99FFFF;" vertex="1" parent="1">
          <mxGeometry x="-520" y="850" width="130" height="40" as="geometry" />
        </mxCell>
        <mxCell id="MkZrQRVodV6hCObbAuwH-51" value="Sub Activity 1-2" style="whiteSpace=wrap;align=center;verticalAlign=middle;fontStyle=1;strokeWidth=3;fillColor=#99FFCC;" vertex="1" parent="1">
          <mxGeometry x="-440" y="1010" width="120" height="40" as="geometry" />
        </mxCell>
        <mxCell id="MkZrQRVodV6hCObbAuwH-52" value="Sub Activity 1-1" style="whiteSpace=wrap;align=center;verticalAlign=middle;fontStyle=1;strokeWidth=3;fillColor=#99FFCC;" vertex="1" parent="1">
          <mxGeometry x="-440" y="930" width="120" height="40" as="geometry" />
        </mxCell>
        <mxCell id="MkZrQRVodV6hCObbAuwH-53" value="Sub Activity 1-3" style="whiteSpace=wrap;align=center;verticalAlign=middle;fontStyle=1;strokeWidth=3;fillColor=#99FFCC;" vertex="1" parent="1">
          <mxGeometry x="-440" y="1090" width="120" height="40" as="geometry" />
        </mxCell>
        <mxCell id="MkZrQRVodV6hCObbAuwH-54" value="Order Index: 1" style="rounded=1;whiteSpace=wrap;html=1;" vertex="1" parent="1">
          <mxGeometry x="-390" y="855" width="90" height="30" as="geometry" />
        </mxCell>
        <mxCell id="MkZrQRVodV6hCObbAuwH-55" value="Order Index: 1" style="rounded=1;whiteSpace=wrap;html=1;" vertex="1" parent="1">
          <mxGeometry x="-320" y="935" width="90" height="30" as="geometry" />
        </mxCell>
        <mxCell id="MkZrQRVodV6hCObbAuwH-56" value="Order Index: 2" style="rounded=1;whiteSpace=wrap;html=1;" vertex="1" parent="1">
          <mxGeometry x="-320" y="1015" width="90" height="30" as="geometry" />
        </mxCell>
        <mxCell id="MkZrQRVodV6hCObbAuwH-57" value="Order Index: 3" style="rounded=1;whiteSpace=wrap;html=1;" vertex="1" parent="1">
          <mxGeometry x="-320" y="1095" width="90" height="30" as="geometry" />
        </mxCell>
        <mxCell id="MkZrQRVodV6hCObbAuwH-58" value="Top Activity 2" style="whiteSpace=wrap;align=center;verticalAlign=middle;fontStyle=1;strokeWidth=3;fillColor=#FFFFCC" vertex="1" parent="1">
          <mxGeometry x="-160" y="850" width="130" height="40" as="geometry" />
        </mxCell>
        <mxCell id="MkZrQRVodV6hCObbAuwH-59" value="Sub Activity 2-2" style="whiteSpace=wrap;align=center;verticalAlign=middle;fontStyle=1;strokeWidth=3;fillColor=#99FFCC;" vertex="1" parent="1">
          <mxGeometry x="-80" y="1010" width="120" height="40" as="geometry" />
        </mxCell>
        <mxCell id="MkZrQRVodV6hCObbAuwH-60" value="Sub Activity 2-1" style="whiteSpace=wrap;align=center;verticalAlign=middle;fontStyle=1;strokeWidth=3;fillColor=#99FFFF;" vertex="1" parent="1">
          <mxGeometry x="-80" y="930" width="120" height="40" as="geometry" />
        </mxCell>
        <mxCell id="MkZrQRVodV6hCObbAuwH-61" value="Sub Activity 2-3" style="whiteSpace=wrap;align=center;verticalAlign=middle;fontStyle=1;strokeWidth=3;fillColor=#99FFFF;" vertex="1" parent="1">
          <mxGeometry x="-80" y="1090" width="120" height="40" as="geometry" />
        </mxCell>
        <mxCell id="MkZrQRVodV6hCObbAuwH-62" value="Order Index: 1" style="rounded=1;whiteSpace=wrap;html=1;" vertex="1" parent="1">
          <mxGeometry x="-30" y="855" width="90" height="30" as="geometry" />
        </mxCell>
        <mxCell id="MkZrQRVodV6hCObbAuwH-63" value="Order Index: 1" style="rounded=1;whiteSpace=wrap;html=1;" vertex="1" parent="1">
          <mxGeometry x="40" y="935" width="90" height="30" as="geometry" />
        </mxCell>
        <mxCell id="MkZrQRVodV6hCObbAuwH-64" value="Order Index: 1" style="rounded=1;whiteSpace=wrap;html=1;" vertex="1" parent="1">
          <mxGeometry x="40" y="1015" width="90" height="30" as="geometry" />
        </mxCell>
        <mxCell id="MkZrQRVodV6hCObbAuwH-65" value="Order Index: 2" style="rounded=1;whiteSpace=wrap;html=1;" vertex="1" parent="1">
          <mxGeometry x="40" y="1095" width="90" height="30" as="geometry" />
        </mxCell>
        <mxCell id="MkZrQRVodV6hCObbAuwH-66" value="Top Activity 3" style="whiteSpace=wrap;align=center;verticalAlign=middle;fontStyle=1;strokeWidth=3;fillColor=#FFFFCC" vertex="1" parent="1">
          <mxGeometry x="200" y="850" width="130" height="40" as="geometry" />
        </mxCell>
        <mxCell id="MkZrQRVodV6hCObbAuwH-67" value="Sub Activity 3-2" style="whiteSpace=wrap;align=center;verticalAlign=middle;fontStyle=1;strokeWidth=3;fillColor=#FFFFCC" vertex="1" parent="1">
          <mxGeometry x="280" y="1010" width="120" height="40" as="geometry" />
        </mxCell>
        <mxCell id="MkZrQRVodV6hCObbAuwH-68" value="Sub Activity 3-1" style="whiteSpace=wrap;align=center;verticalAlign=middle;fontStyle=1;strokeWidth=3;fillColor=#FFFFCC" vertex="1" parent="1">
          <mxGeometry x="280" y="930" width="120" height="40" as="geometry" />
        </mxCell>
        <mxCell id="MkZrQRVodV6hCObbAuwH-69" value="Sub Activity 3-3" style="whiteSpace=wrap;align=center;verticalAlign=middle;fontStyle=1;strokeWidth=3;fillColor=#FFFFCC" vertex="1" parent="1">
          <mxGeometry x="280" y="1090" width="120" height="40" as="geometry" />
        </mxCell>
        <mxCell id="MkZrQRVodV6hCObbAuwH-70" value="Order Index: 2" style="rounded=1;whiteSpace=wrap;html=1;" vertex="1" parent="1">
          <mxGeometry x="330" y="855" width="90" height="30" as="geometry" />
        </mxCell>
        <mxCell id="MkZrQRVodV6hCObbAuwH-71" value="Order Index: 1" style="rounded=1;whiteSpace=wrap;html=1;" vertex="1" parent="1">
          <mxGeometry x="400" y="935" width="90" height="30" as="geometry" />
        </mxCell>
        <mxCell id="MkZrQRVodV6hCObbAuwH-72" value="Order Index: 2" style="rounded=1;whiteSpace=wrap;html=1;" vertex="1" parent="1">
          <mxGeometry x="400" y="1015" width="90" height="30" as="geometry" />
        </mxCell>
        <mxCell id="MkZrQRVodV6hCObbAuwH-73" value="Order Index: 2" style="rounded=1;whiteSpace=wrap;html=1;" vertex="1" parent="1">
          <mxGeometry x="400" y="1095" width="90" height="30" as="geometry" />
        </mxCell>
        <mxCell id="MkZrQRVodV6hCObbAuwH-74" value="Top Activity 1" style="whiteSpace=wrap;align=center;verticalAlign=middle;fontStyle=1;strokeWidth=3;fillColor=#99FFCC;" vertex="1" parent="1">
          <mxGeometry x="-520" y="1210" width="130" height="40" as="geometry" />
        </mxCell>
        <mxCell id="MkZrQRVodV6hCObbAuwH-75" value="Sub Activity 1-2" style="whiteSpace=wrap;align=center;verticalAlign=middle;fontStyle=1;strokeWidth=3;fillColor=#99FFCC;" vertex="1" parent="1">
          <mxGeometry x="-440" y="1370" width="120" height="40" as="geometry" />
        </mxCell>
        <mxCell id="MkZrQRVodV6hCObbAuwH-76" value="Sub Activity 1-1" style="whiteSpace=wrap;align=center;verticalAlign=middle;fontStyle=1;strokeWidth=3;fillColor=#99FFCC;" vertex="1" parent="1">
          <mxGeometry x="-440" y="1290" width="120" height="40" as="geometry" />
        </mxCell>
        <mxCell id="MkZrQRVodV6hCObbAuwH-77" value="Sub Activity 1-3" style="whiteSpace=wrap;align=center;verticalAlign=middle;fontStyle=1;strokeWidth=3;fillColor=#99FFCC;" vertex="1" parent="1">
          <mxGeometry x="-440" y="1450" width="120" height="40" as="geometry" />
        </mxCell>
        <mxCell id="MkZrQRVodV6hCObbAuwH-78" value="Order Index: 1" style="rounded=1;whiteSpace=wrap;html=1;" vertex="1" parent="1">
          <mxGeometry x="-390" y="1215" width="90" height="30" as="geometry" />
        </mxCell>
        <mxCell id="MkZrQRVodV6hCObbAuwH-79" value="Order Index: 1" style="rounded=1;whiteSpace=wrap;html=1;" vertex="1" parent="1">
          <mxGeometry x="-320" y="1295" width="90" height="30" as="geometry" />
        </mxCell>
        <mxCell id="MkZrQRVodV6hCObbAuwH-80" value="Order Index: 2" style="rounded=1;whiteSpace=wrap;html=1;" vertex="1" parent="1">
          <mxGeometry x="-320" y="1375" width="90" height="30" as="geometry" />
        </mxCell>
        <mxCell id="MkZrQRVodV6hCObbAuwH-81" value="Order Index: 3" style="rounded=1;whiteSpace=wrap;html=1;" vertex="1" parent="1">
          <mxGeometry x="-320" y="1455" width="90" height="30" as="geometry" />
        </mxCell>
        <mxCell id="MkZrQRVodV6hCObbAuwH-82" value="Top Activity 2" style="whiteSpace=wrap;align=center;verticalAlign=middle;fontStyle=1;strokeWidth=3;fillColor=#FFFFCC" vertex="1" parent="1">
          <mxGeometry x="-160" y="1210" width="130" height="40" as="geometry" />
        </mxCell>
        <mxCell id="MkZrQRVodV6hCObbAuwH-83" value="Sub Activity 2-2" style="whiteSpace=wrap;align=center;verticalAlign=middle;fontStyle=1;strokeWidth=3;fillColor=#99FFCC;" vertex="1" parent="1">
          <mxGeometry x="-80" y="1370" width="120" height="40" as="geometry" />
        </mxCell>
        <mxCell id="MkZrQRVodV6hCObbAuwH-84" value="Sub Activity 2-1" style="whiteSpace=wrap;align=center;verticalAlign=middle;fontStyle=1;strokeWidth=3;fillColor=#99FFFF;" vertex="1" parent="1">
          <mxGeometry x="-80" y="1290" width="120" height="40" as="geometry" />
        </mxCell>
        <mxCell id="MkZrQRVodV6hCObbAuwH-85" value="Sub Activity 2-3" style="whiteSpace=wrap;align=center;verticalAlign=middle;fontStyle=1;strokeWidth=3;fillColor=#99FFFF;" vertex="1" parent="1">
          <mxGeometry x="-80" y="1450" width="120" height="40" as="geometry" />
        </mxCell>
        <mxCell id="MkZrQRVodV6hCObbAuwH-86" value="Order Index: 1" style="rounded=1;whiteSpace=wrap;html=1;" vertex="1" parent="1">
          <mxGeometry x="-30" y="1215" width="90" height="30" as="geometry" />
        </mxCell>
        <mxCell id="MkZrQRVodV6hCObbAuwH-87" value="Order Index: 1" style="rounded=1;whiteSpace=wrap;html=1;" vertex="1" parent="1">
          <mxGeometry x="40" y="1295" width="90" height="30" as="geometry" />
        </mxCell>
        <mxCell id="MkZrQRVodV6hCObbAuwH-88" value="Order Index: 1" style="rounded=1;whiteSpace=wrap;html=1;" vertex="1" parent="1">
          <mxGeometry x="40" y="1375" width="90" height="30" as="geometry" />
        </mxCell>
        <mxCell id="MkZrQRVodV6hCObbAuwH-89" value="Order Index: 2" style="rounded=1;whiteSpace=wrap;html=1;" vertex="1" parent="1">
          <mxGeometry x="40" y="1455" width="90" height="30" as="geometry" />
        </mxCell>
        <mxCell id="MkZrQRVodV6hCObbAuwH-90" value="Top Activity 3" style="whiteSpace=wrap;align=center;verticalAlign=middle;fontStyle=1;strokeWidth=3;fillColor=#FFFFCC" vertex="1" parent="1">
          <mxGeometry x="200" y="1210" width="130" height="40" as="geometry" />
        </mxCell>
        <mxCell id="MkZrQRVodV6hCObbAuwH-91" value="Sub Activity 3-2" style="whiteSpace=wrap;align=center;verticalAlign=middle;fontStyle=1;strokeWidth=3;fillColor=#FFFFCC" vertex="1" parent="1">
          <mxGeometry x="280" y="1370" width="120" height="40" as="geometry" />
        </mxCell>
        <mxCell id="MkZrQRVodV6hCObbAuwH-92" value="Sub Activity 3-1" style="whiteSpace=wrap;align=center;verticalAlign=middle;fontStyle=1;strokeWidth=3;fillColor=#FFFFCC" vertex="1" parent="1">
          <mxGeometry x="280" y="1290" width="120" height="40" as="geometry" />
        </mxCell>
        <mxCell id="MkZrQRVodV6hCObbAuwH-93" value="Sub Activity 3-3" style="whiteSpace=wrap;align=center;verticalAlign=middle;fontStyle=1;strokeWidth=3;fillColor=#FFFFCC" vertex="1" parent="1">
          <mxGeometry x="280" y="1450" width="120" height="40" as="geometry" />
        </mxCell>
        <mxCell id="MkZrQRVodV6hCObbAuwH-94" value="Order Index: 2" style="rounded=1;whiteSpace=wrap;html=1;" vertex="1" parent="1">
          <mxGeometry x="330" y="1215" width="90" height="30" as="geometry" />
        </mxCell>
        <mxCell id="MkZrQRVodV6hCObbAuwH-95" value="Order Index: 1" style="rounded=1;whiteSpace=wrap;html=1;" vertex="1" parent="1">
          <mxGeometry x="400" y="1295" width="90" height="30" as="geometry" />
        </mxCell>
        <mxCell id="MkZrQRVodV6hCObbAuwH-96" value="Order Index: 2" style="rounded=1;whiteSpace=wrap;html=1;" vertex="1" parent="1">
          <mxGeometry x="400" y="1375" width="90" height="30" as="geometry" />
        </mxCell>
        <mxCell id="MkZrQRVodV6hCObbAuwH-97" value="Order Index: 2" style="rounded=1;whiteSpace=wrap;html=1;" vertex="1" parent="1">
          <mxGeometry x="400" y="1455" width="90" height="30" as="geometry" />
        </mxCell>
        <mxCell id="MkZrQRVodV6hCObbAuwH-98" value="Top Activity 1" style="whiteSpace=wrap;align=center;verticalAlign=middle;fontStyle=1;strokeWidth=3;fillColor=#99FFCC;" vertex="1" parent="1">
          <mxGeometry x="-520" y="1570" width="130" height="40" as="geometry" />
        </mxCell>
        <mxCell id="MkZrQRVodV6hCObbAuwH-99" value="Sub Activity 1-2" style="whiteSpace=wrap;align=center;verticalAlign=middle;fontStyle=1;strokeWidth=3;fillColor=#99FFCC;" vertex="1" parent="1">
          <mxGeometry x="-440" y="1730" width="120" height="40" as="geometry" />
        </mxCell>
        <mxCell id="MkZrQRVodV6hCObbAuwH-100" value="Sub Activity 1-1" style="whiteSpace=wrap;align=center;verticalAlign=middle;fontStyle=1;strokeWidth=3;fillColor=#99FFCC;" vertex="1" parent="1">
          <mxGeometry x="-440" y="1650" width="120" height="40" as="geometry" />
        </mxCell>
        <mxCell id="MkZrQRVodV6hCObbAuwH-101" value="Sub Activity 1-3" style="whiteSpace=wrap;align=center;verticalAlign=middle;fontStyle=1;strokeWidth=3;fillColor=#99FFCC;" vertex="1" parent="1">
          <mxGeometry x="-440" y="1810" width="120" height="40" as="geometry" />
        </mxCell>
        <mxCell id="MkZrQRVodV6hCObbAuwH-102" value="Order Index: 1" style="rounded=1;whiteSpace=wrap;html=1;" vertex="1" parent="1">
          <mxGeometry x="-390" y="1575" width="90" height="30" as="geometry" />
        </mxCell>
        <mxCell id="MkZrQRVodV6hCObbAuwH-103" value="Order Index: 1" style="rounded=1;whiteSpace=wrap;html=1;" vertex="1" parent="1">
          <mxGeometry x="-320" y="1655" width="90" height="30" as="geometry" />
        </mxCell>
        <mxCell id="MkZrQRVodV6hCObbAuwH-104" value="Order Index: 2" style="rounded=1;whiteSpace=wrap;html=1;" vertex="1" parent="1">
          <mxGeometry x="-320" y="1735" width="90" height="30" as="geometry" />
        </mxCell>
        <mxCell id="MkZrQRVodV6hCObbAuwH-105" value="Order Index: 3" style="rounded=1;whiteSpace=wrap;html=1;" vertex="1" parent="1">
          <mxGeometry x="-320" y="1815" width="90" height="30" as="geometry" />
        </mxCell>
        <mxCell id="MkZrQRVodV6hCObbAuwH-106" value="Top Activity 2" style="whiteSpace=wrap;align=center;verticalAlign=middle;fontStyle=1;strokeWidth=3;fillColor=#99FFFF;" vertex="1" parent="1">
          <mxGeometry x="-160" y="1570" width="130" height="40" as="geometry" />
        </mxCell>
        <mxCell id="MkZrQRVodV6hCObbAuwH-107" value="Sub Activity 2-2" style="whiteSpace=wrap;align=center;verticalAlign=middle;fontStyle=1;strokeWidth=3;fillColor=#99FFCC;" vertex="1" parent="1">
          <mxGeometry x="-80" y="1730" width="120" height="40" as="geometry" />
        </mxCell>
        <mxCell id="MkZrQRVodV6hCObbAuwH-108" value="Sub Activity 2-1" style="whiteSpace=wrap;align=center;verticalAlign=middle;fontStyle=1;strokeWidth=3;fillColor=#99FFCC;" vertex="1" parent="1">
          <mxGeometry x="-80" y="1650" width="120" height="40" as="geometry" />
        </mxCell>
        <mxCell id="MkZrQRVodV6hCObbAuwH-109" value="Sub Activity 2-3" style="whiteSpace=wrap;align=center;verticalAlign=middle;fontStyle=1;strokeWidth=3;fillColor=#99FFCC;" vertex="1" parent="1">
          <mxGeometry x="-80" y="1810" width="120" height="40" as="geometry" />
        </mxCell>
        <mxCell id="MkZrQRVodV6hCObbAuwH-110" value="Order Index: 1" style="rounded=1;whiteSpace=wrap;html=1;" vertex="1" parent="1">
          <mxGeometry x="-30" y="1575" width="90" height="30" as="geometry" />
        </mxCell>
        <mxCell id="MkZrQRVodV6hCObbAuwH-111" value="Order Index: 1" style="rounded=1;whiteSpace=wrap;html=1;" vertex="1" parent="1">
          <mxGeometry x="40" y="1655" width="90" height="30" as="geometry" />
        </mxCell>
        <mxCell id="MkZrQRVodV6hCObbAuwH-112" value="Order Index: 1" style="rounded=1;whiteSpace=wrap;html=1;" vertex="1" parent="1">
          <mxGeometry x="40" y="1735" width="90" height="30" as="geometry" />
        </mxCell>
        <mxCell id="MkZrQRVodV6hCObbAuwH-113" value="Order Index: 2" style="rounded=1;whiteSpace=wrap;html=1;" vertex="1" parent="1">
          <mxGeometry x="40" y="1815" width="90" height="30" as="geometry" />
        </mxCell>
        <mxCell id="MkZrQRVodV6hCObbAuwH-114" value="Top Activity 3" style="whiteSpace=wrap;align=center;verticalAlign=middle;fontStyle=1;strokeWidth=3;fillColor=#FFFFCC" vertex="1" parent="1">
          <mxGeometry x="200" y="1570" width="130" height="40" as="geometry" />
        </mxCell>
        <mxCell id="MkZrQRVodV6hCObbAuwH-115" value="Sub Activity 3-2" style="whiteSpace=wrap;align=center;verticalAlign=middle;fontStyle=1;strokeWidth=3;fillColor=#FFFFCC" vertex="1" parent="1">
          <mxGeometry x="280" y="1730" width="120" height="40" as="geometry" />
        </mxCell>
        <mxCell id="MkZrQRVodV6hCObbAuwH-116" value="Sub Activity 3-1" style="whiteSpace=wrap;align=center;verticalAlign=middle;fontStyle=1;strokeWidth=3;fillColor=#FFFFCC" vertex="1" parent="1">
          <mxGeometry x="280" y="1650" width="120" height="40" as="geometry" />
        </mxCell>
        <mxCell id="MkZrQRVodV6hCObbAuwH-117" value="Sub Activity 3-3" style="whiteSpace=wrap;align=center;verticalAlign=middle;fontStyle=1;strokeWidth=3;fillColor=#FFFFCC" vertex="1" parent="1">
          <mxGeometry x="280" y="1810" width="120" height="40" as="geometry" />
        </mxCell>
        <mxCell id="MkZrQRVodV6hCObbAuwH-118" value="Order Index: 2" style="rounded=1;whiteSpace=wrap;html=1;" vertex="1" parent="1">
          <mxGeometry x="330" y="1575" width="90" height="30" as="geometry" />
        </mxCell>
        <mxCell id="MkZrQRVodV6hCObbAuwH-119" value="Order Index: 1" style="rounded=1;whiteSpace=wrap;html=1;" vertex="1" parent="1">
          <mxGeometry x="400" y="1655" width="90" height="30" as="geometry" />
        </mxCell>
        <mxCell id="MkZrQRVodV6hCObbAuwH-120" value="Order Index: 2" style="rounded=1;whiteSpace=wrap;html=1;" vertex="1" parent="1">
          <mxGeometry x="400" y="1735" width="90" height="30" as="geometry" />
        </mxCell>
        <mxCell id="MkZrQRVodV6hCObbAuwH-121" value="Order Index: 2" style="rounded=1;whiteSpace=wrap;html=1;" vertex="1" parent="1">
          <mxGeometry x="400" y="1815" width="90" height="30" as="geometry" />
        </mxCell>
        <mxCell id="MkZrQRVodV6hCObbAuwH-122" value="Top Activity 1" style="whiteSpace=wrap;align=center;verticalAlign=middle;fontStyle=1;strokeWidth=3;fillColor=#99FFCC;" vertex="1" parent="1">
          <mxGeometry x="-520" y="1930" width="130" height="40" as="geometry" />
        </mxCell>
        <mxCell id="MkZrQRVodV6hCObbAuwH-123" value="Sub Activity 1-2" style="whiteSpace=wrap;align=center;verticalAlign=middle;fontStyle=1;strokeWidth=3;fillColor=#99FFCC;" vertex="1" parent="1">
          <mxGeometry x="-440" y="2090" width="120" height="40" as="geometry" />
        </mxCell>
        <mxCell id="MkZrQRVodV6hCObbAuwH-124" value="Sub Activity 1-1" style="whiteSpace=wrap;align=center;verticalAlign=middle;fontStyle=1;strokeWidth=3;fillColor=#99FFCC;" vertex="1" parent="1">
          <mxGeometry x="-440" y="2010" width="120" height="40" as="geometry" />
        </mxCell>
        <mxCell id="MkZrQRVodV6hCObbAuwH-125" value="Sub Activity 1-3" style="whiteSpace=wrap;align=center;verticalAlign=middle;fontStyle=1;strokeWidth=3;fillColor=#99FFCC;" vertex="1" parent="1">
          <mxGeometry x="-440" y="2170" width="120" height="40" as="geometry" />
        </mxCell>
        <mxCell id="MkZrQRVodV6hCObbAuwH-126" value="Order Index: 1" style="rounded=1;whiteSpace=wrap;html=1;" vertex="1" parent="1">
          <mxGeometry x="-390" y="1935" width="90" height="30" as="geometry" />
        </mxCell>
        <mxCell id="MkZrQRVodV6hCObbAuwH-127" value="Order Index: 1" style="rounded=1;whiteSpace=wrap;html=1;" vertex="1" parent="1">
          <mxGeometry x="-320" y="2015" width="90" height="30" as="geometry" />
        </mxCell>
        <mxCell id="MkZrQRVodV6hCObbAuwH-128" value="Order Index: 2" style="rounded=1;whiteSpace=wrap;html=1;" vertex="1" parent="1">
          <mxGeometry x="-320" y="2095" width="90" height="30" as="geometry" />
        </mxCell>
        <mxCell id="MkZrQRVodV6hCObbAuwH-129" value="Order Index: 3" style="rounded=1;whiteSpace=wrap;html=1;" vertex="1" parent="1">
          <mxGeometry x="-320" y="2175" width="90" height="30" as="geometry" />
        </mxCell>
        <mxCell id="MkZrQRVodV6hCObbAuwH-130" value="Top Activity 2" style="whiteSpace=wrap;align=center;verticalAlign=middle;fontStyle=1;strokeWidth=3;fillColor=#99FFCC;" vertex="1" parent="1">
          <mxGeometry x="-160" y="1930" width="130" height="40" as="geometry" />
        </mxCell>
        <mxCell id="MkZrQRVodV6hCObbAuwH-131" value="Sub Activity 2-2" style="whiteSpace=wrap;align=center;verticalAlign=middle;fontStyle=1;strokeWidth=3;fillColor=#99FFCC;" vertex="1" parent="1">
          <mxGeometry x="-80" y="2090" width="120" height="40" as="geometry" />
        </mxCell>
        <mxCell id="MkZrQRVodV6hCObbAuwH-132" value="Sub Activity 2-1" style="whiteSpace=wrap;align=center;verticalAlign=middle;fontStyle=1;strokeWidth=3;fillColor=#99FFCC;" vertex="1" parent="1">
          <mxGeometry x="-80" y="2010" width="120" height="40" as="geometry" />
        </mxCell>
        <mxCell id="MkZrQRVodV6hCObbAuwH-133" value="Sub Activity 2-3" style="whiteSpace=wrap;align=center;verticalAlign=middle;fontStyle=1;strokeWidth=3;fillColor=#99FFCC;" vertex="1" parent="1">
          <mxGeometry x="-80" y="2170" width="120" height="40" as="geometry" />
        </mxCell>
        <mxCell id="MkZrQRVodV6hCObbAuwH-134" value="Order Index: 1" style="rounded=1;whiteSpace=wrap;html=1;" vertex="1" parent="1">
          <mxGeometry x="-30" y="1935" width="90" height="30" as="geometry" />
        </mxCell>
        <mxCell id="MkZrQRVodV6hCObbAuwH-135" value="Order Index: 1" style="rounded=1;whiteSpace=wrap;html=1;" vertex="1" parent="1">
          <mxGeometry x="40" y="2015" width="90" height="30" as="geometry" />
        </mxCell>
        <mxCell id="MkZrQRVodV6hCObbAuwH-136" value="Order Index: 1" style="rounded=1;whiteSpace=wrap;html=1;" vertex="1" parent="1">
          <mxGeometry x="40" y="2095" width="90" height="30" as="geometry" />
        </mxCell>
        <mxCell id="MkZrQRVodV6hCObbAuwH-137" value="Order Index: 2" style="rounded=1;whiteSpace=wrap;html=1;" vertex="1" parent="1">
          <mxGeometry x="40" y="2175" width="90" height="30" as="geometry" />
        </mxCell>
        <mxCell id="MkZrQRVodV6hCObbAuwH-138" value="Top Activity 3" style="whiteSpace=wrap;align=center;verticalAlign=middle;fontStyle=1;strokeWidth=3;fillColor=#FFFFCC" vertex="1" parent="1">
          <mxGeometry x="200" y="1930" width="130" height="40" as="geometry" />
        </mxCell>
        <mxCell id="MkZrQRVodV6hCObbAuwH-139" value="Sub Activity 3-2" style="whiteSpace=wrap;align=center;verticalAlign=middle;fontStyle=1;strokeWidth=3;fillColor=#99FFFF;" vertex="1" parent="1">
          <mxGeometry x="280" y="2090" width="120" height="40" as="geometry" />
        </mxCell>
        <mxCell id="MkZrQRVodV6hCObbAuwH-140" value="Sub Activity 3-1" style="whiteSpace=wrap;align=center;verticalAlign=middle;fontStyle=1;strokeWidth=3;fillColor=#99FFFF;" vertex="1" parent="1">
          <mxGeometry x="280" y="2010" width="120" height="40" as="geometry" />
        </mxCell>
        <mxCell id="MkZrQRVodV6hCObbAuwH-141" value="Sub Activity 3-3" style="whiteSpace=wrap;align=center;verticalAlign=middle;fontStyle=1;strokeWidth=3;fillColor=#99FFFF;" vertex="1" parent="1">
          <mxGeometry x="280" y="2170" width="120" height="40" as="geometry" />
        </mxCell>
        <mxCell id="MkZrQRVodV6hCObbAuwH-142" value="Order Index: 2" style="rounded=1;whiteSpace=wrap;html=1;" vertex="1" parent="1">
          <mxGeometry x="330" y="1935" width="90" height="30" as="geometry" />
        </mxCell>
        <mxCell id="MkZrQRVodV6hCObbAuwH-143" value="Order Index: 1" style="rounded=1;whiteSpace=wrap;html=1;" vertex="1" parent="1">
          <mxGeometry x="400" y="2015" width="90" height="30" as="geometry" />
        </mxCell>
        <mxCell id="MkZrQRVodV6hCObbAuwH-144" value="Order Index: 2" style="rounded=1;whiteSpace=wrap;html=1;" vertex="1" parent="1">
          <mxGeometry x="400" y="2095" width="90" height="30" as="geometry" />
        </mxCell>
        <mxCell id="MkZrQRVodV6hCObbAuwH-145" value="Order Index: 2" style="rounded=1;whiteSpace=wrap;html=1;" vertex="1" parent="1">
          <mxGeometry x="400" y="2175" width="90" height="30" as="geometry" />
        </mxCell>
      </root>
    </mxGraphModel>
  </diagram>
  <diagram id="RPk1ujX3YSWRSTUwbo5T" name="Top Down">
    <mxGraphModel dx="2062" dy="-1804" grid="1" gridSize="10" guides="1" tooltips="1" connect="1" arrows="1" fold="1" page="1" pageScale="1" pageWidth="850" pageHeight="1100" math="0" shadow="0">
      <root>
        <mxCell id="0" />
        <mxCell id="1" parent="0" />
        <mxCell id="lI2HxheBC4uDuuJV-x3l-1" value="Top Activity 1" style="whiteSpace=wrap;align=center;verticalAlign=middle;fontStyle=1;strokeWidth=3;fillColor=#99FFFF;" vertex="1" parent="1">
          <mxGeometry x="-480" y="2340" width="130" height="40" as="geometry" />
        </mxCell>
        <mxCell id="lI2HxheBC4uDuuJV-x3l-2" value="" style="edgeStyle=orthogonalEdgeStyle;rounded=0;orthogonalLoop=1;jettySize=auto;html=1;" edge="1" parent="1" source="lI2HxheBC4uDuuJV-x3l-3" target="lI2HxheBC4uDuuJV-x3l-4">
          <mxGeometry relative="1" as="geometry" />
        </mxCell>
        <mxCell id="lI2HxheBC4uDuuJV-x3l-3" value="Sub Activity 1-2" style="whiteSpace=wrap;align=center;verticalAlign=middle;fontStyle=1;strokeWidth=3;fillColor=#FFFFCC;" vertex="1" parent="1">
          <mxGeometry x="-400" y="2500" width="120" height="40" as="geometry" />
        </mxCell>
        <mxCell id="lI2HxheBC4uDuuJV-x3l-4" value="Sub Activity 1-1" style="whiteSpace=wrap;align=center;verticalAlign=middle;fontStyle=1;strokeWidth=3;fillColor=#FFFFCC;" vertex="1" parent="1">
          <mxGeometry x="-400" y="2420" width="120" height="40" as="geometry" />
        </mxCell>
        <mxCell id="lI2HxheBC4uDuuJV-x3l-5" value="Sub Activity 1-3" style="whiteSpace=wrap;align=center;verticalAlign=middle;fontStyle=1;strokeWidth=3;fillColor=#FFFFCC;" vertex="1" parent="1">
          <mxGeometry x="-400" y="2580" width="120" height="40" as="geometry" />
        </mxCell>
        <mxCell id="lI2HxheBC4uDuuJV-x3l-6" value="Order Index: 1" style="rounded=1;whiteSpace=wrap;html=1;" vertex="1" parent="1">
          <mxGeometry x="-350" y="2345" width="90" height="30" as="geometry" />
        </mxCell>
        <mxCell id="lI2HxheBC4uDuuJV-x3l-7" value="Order Index: 1" style="rounded=1;whiteSpace=wrap;html=1;" vertex="1" parent="1">
          <mxGeometry x="-280" y="2425" width="90" height="30" as="geometry" />
        </mxCell>
        <mxCell id="lI2HxheBC4uDuuJV-x3l-8" value="Order Index: 2" style="rounded=1;whiteSpace=wrap;html=1;" vertex="1" parent="1">
          <mxGeometry x="-280" y="2505" width="90" height="30" as="geometry" />
        </mxCell>
        <mxCell id="lI2HxheBC4uDuuJV-x3l-9" value="Order Index: 3" style="rounded=1;whiteSpace=wrap;html=1;" vertex="1" parent="1">
          <mxGeometry x="-280" y="2585" width="90" height="30" as="geometry" />
        </mxCell>
        <mxCell id="lI2HxheBC4uDuuJV-x3l-10" value="Top Activity 2" style="whiteSpace=wrap;align=center;verticalAlign=middle;fontStyle=1;strokeWidth=3;fillColor=#99FFFF;" vertex="1" parent="1">
          <mxGeometry x="-120" y="2340" width="130" height="40" as="geometry" />
        </mxCell>
        <mxCell id="lI2HxheBC4uDuuJV-x3l-11" value="Sub Activity 2-2" style="whiteSpace=wrap;align=center;verticalAlign=middle;fontStyle=1;strokeWidth=3;fillColor=#FFFFCC;" vertex="1" parent="1">
          <mxGeometry x="-40" y="2500" width="120" height="40" as="geometry" />
        </mxCell>
        <mxCell id="lI2HxheBC4uDuuJV-x3l-12" value="Sub Activity 2-1" style="whiteSpace=wrap;align=center;verticalAlign=middle;fontStyle=1;strokeWidth=3;fillColor=#FFFFCC;" vertex="1" parent="1">
          <mxGeometry x="-40" y="2420" width="120" height="40" as="geometry" />
        </mxCell>
        <mxCell id="lI2HxheBC4uDuuJV-x3l-13" value="Sub Activity 2-3" style="whiteSpace=wrap;align=center;verticalAlign=middle;fontStyle=1;strokeWidth=3;fillColor=#FFFFCC;" vertex="1" parent="1">
          <mxGeometry x="-40" y="2580" width="120" height="40" as="geometry" />
        </mxCell>
        <mxCell id="lI2HxheBC4uDuuJV-x3l-14" value="Order Index: 1" style="rounded=1;whiteSpace=wrap;html=1;" vertex="1" parent="1">
          <mxGeometry x="10" y="2345" width="90" height="30" as="geometry" />
        </mxCell>
        <mxCell id="lI2HxheBC4uDuuJV-x3l-15" value="Order Index: 1" style="rounded=1;whiteSpace=wrap;html=1;" vertex="1" parent="1">
          <mxGeometry x="80" y="2425" width="90" height="30" as="geometry" />
        </mxCell>
        <mxCell id="lI2HxheBC4uDuuJV-x3l-16" value="Order Index: 1" style="rounded=1;whiteSpace=wrap;html=1;" vertex="1" parent="1">
          <mxGeometry x="80" y="2505" width="90" height="30" as="geometry" />
        </mxCell>
        <mxCell id="lI2HxheBC4uDuuJV-x3l-17" value="Order Index: 2" style="rounded=1;whiteSpace=wrap;html=1;" vertex="1" parent="1">
          <mxGeometry x="80" y="2585" width="90" height="30" as="geometry" />
        </mxCell>
        <mxCell id="lI2HxheBC4uDuuJV-x3l-18" value="Top Activity 3" style="whiteSpace=wrap;align=center;verticalAlign=middle;fontStyle=1;strokeWidth=3;fillColor=#FFFFCC" vertex="1" parent="1">
          <mxGeometry x="240" y="2340" width="130" height="40" as="geometry" />
        </mxCell>
        <mxCell id="lI2HxheBC4uDuuJV-x3l-19" value="Sub Activity 3-2" style="whiteSpace=wrap;align=center;verticalAlign=middle;fontStyle=1;strokeWidth=3;fillColor=#FFFFCC" vertex="1" parent="1">
          <mxGeometry x="320" y="2500" width="120" height="40" as="geometry" />
        </mxCell>
        <mxCell id="lI2HxheBC4uDuuJV-x3l-20" value="Sub Activity 3-1" style="whiteSpace=wrap;align=center;verticalAlign=middle;fontStyle=1;strokeWidth=3;fillColor=#FFFFCC" vertex="1" parent="1">
          <mxGeometry x="320" y="2420" width="120" height="40" as="geometry" />
        </mxCell>
        <mxCell id="lI2HxheBC4uDuuJV-x3l-21" value="Sub Activity 3-3" style="whiteSpace=wrap;align=center;verticalAlign=middle;fontStyle=1;strokeWidth=3;fillColor=#FFFFCC" vertex="1" parent="1">
          <mxGeometry x="320" y="2580" width="120" height="40" as="geometry" />
        </mxCell>
        <mxCell id="lI2HxheBC4uDuuJV-x3l-22" value="Order Index: 2" style="rounded=1;whiteSpace=wrap;html=1;" vertex="1" parent="1">
          <mxGeometry x="370" y="2345" width="90" height="30" as="geometry" />
        </mxCell>
        <mxCell id="lI2HxheBC4uDuuJV-x3l-23" value="Order Index: 1" style="rounded=1;whiteSpace=wrap;html=1;" vertex="1" parent="1">
          <mxGeometry x="440" y="2425" width="90" height="30" as="geometry" />
        </mxCell>
        <mxCell id="lI2HxheBC4uDuuJV-x3l-24" value="Order Index: 2" style="rounded=1;whiteSpace=wrap;html=1;" vertex="1" parent="1">
          <mxGeometry x="440" y="2505" width="90" height="30" as="geometry" />
        </mxCell>
        <mxCell id="lI2HxheBC4uDuuJV-x3l-25" value="Order Index: 2" style="rounded=1;whiteSpace=wrap;html=1;" vertex="1" parent="1">
          <mxGeometry x="440" y="2585" width="90" height="30" as="geometry" />
        </mxCell>
        <mxCell id="lI2HxheBC4uDuuJV-x3l-26" value="Top Down" style="text;strokeColor=none;fillColor=none;html=1;fontSize=24;fontStyle=1;verticalAlign=middle;align=center;" vertex="1" parent="1">
          <mxGeometry x="-30" y="2260" width="100" height="40" as="geometry" />
        </mxCell>
        <mxCell id="lI2HxheBC4uDuuJV-x3l-27" value="Top Activity 1" style="whiteSpace=wrap;align=center;verticalAlign=middle;fontStyle=1;strokeWidth=3;fillColor=#99FFCC;" vertex="1" parent="1">
          <mxGeometry x="-480" y="2700" width="130" height="40" as="geometry" />
        </mxCell>
        <mxCell id="lI2HxheBC4uDuuJV-x3l-28" value="" style="edgeStyle=orthogonalEdgeStyle;rounded=0;orthogonalLoop=1;jettySize=auto;html=1;" edge="1" parent="1" source="lI2HxheBC4uDuuJV-x3l-29" target="lI2HxheBC4uDuuJV-x3l-30">
          <mxGeometry relative="1" as="geometry" />
        </mxCell>
        <mxCell id="lI2HxheBC4uDuuJV-x3l-29" value="Sub Activity 1-2" style="whiteSpace=wrap;align=center;verticalAlign=middle;fontStyle=1;strokeWidth=3;fillColor=#FFFFCC;" vertex="1" parent="1">
          <mxGeometry x="-400" y="2860" width="120" height="40" as="geometry" />
        </mxCell>
        <mxCell id="lI2HxheBC4uDuuJV-x3l-30" value="Sub Activity 1-1" style="whiteSpace=wrap;align=center;verticalAlign=middle;fontStyle=1;strokeWidth=3;fillColor=#99FFFF;" vertex="1" parent="1">
          <mxGeometry x="-400" y="2780" width="120" height="40" as="geometry" />
        </mxCell>
        <mxCell id="lI2HxheBC4uDuuJV-x3l-31" value="Sub Activity 1-3" style="whiteSpace=wrap;align=center;verticalAlign=middle;fontStyle=1;strokeWidth=3;fillColor=#FFFFCC;" vertex="1" parent="1">
          <mxGeometry x="-400" y="2940" width="120" height="40" as="geometry" />
        </mxCell>
        <mxCell id="lI2HxheBC4uDuuJV-x3l-32" value="Order Index: 1" style="rounded=1;whiteSpace=wrap;html=1;" vertex="1" parent="1">
          <mxGeometry x="-350" y="2705" width="90" height="30" as="geometry" />
        </mxCell>
        <mxCell id="lI2HxheBC4uDuuJV-x3l-33" value="Order Index: 1" style="rounded=1;whiteSpace=wrap;html=1;" vertex="1" parent="1">
          <mxGeometry x="-280" y="2785" width="90" height="30" as="geometry" />
        </mxCell>
        <mxCell id="lI2HxheBC4uDuuJV-x3l-34" value="Order Index: 2" style="rounded=1;whiteSpace=wrap;html=1;" vertex="1" parent="1">
          <mxGeometry x="-280" y="2865" width="90" height="30" as="geometry" />
        </mxCell>
        <mxCell id="lI2HxheBC4uDuuJV-x3l-35" value="Order Index: 3" style="rounded=1;whiteSpace=wrap;html=1;" vertex="1" parent="1">
          <mxGeometry x="-280" y="2945" width="90" height="30" as="geometry" />
        </mxCell>
        <mxCell id="lI2HxheBC4uDuuJV-x3l-36" value="Top Activity 2" style="whiteSpace=wrap;align=center;verticalAlign=middle;fontStyle=1;strokeWidth=3;fillColor=#99FFFF;" vertex="1" parent="1">
          <mxGeometry x="-120" y="2700" width="130" height="40" as="geometry" />
        </mxCell>
        <mxCell id="lI2HxheBC4uDuuJV-x3l-37" value="Sub Activity 2-2" style="whiteSpace=wrap;align=center;verticalAlign=middle;fontStyle=1;strokeWidth=3;fillColor=#FFFFCC;" vertex="1" parent="1">
          <mxGeometry x="-40" y="2860" width="120" height="40" as="geometry" />
        </mxCell>
        <mxCell id="lI2HxheBC4uDuuJV-x3l-38" value="Sub Activity 2-1" style="whiteSpace=wrap;align=center;verticalAlign=middle;fontStyle=1;strokeWidth=3;fillColor=#FFFFCC;" vertex="1" parent="1">
          <mxGeometry x="-40" y="2780" width="120" height="40" as="geometry" />
        </mxCell>
        <mxCell id="lI2HxheBC4uDuuJV-x3l-39" value="Sub Activity 2-3" style="whiteSpace=wrap;align=center;verticalAlign=middle;fontStyle=1;strokeWidth=3;fillColor=#FFFFCC;" vertex="1" parent="1">
          <mxGeometry x="-40" y="2940" width="120" height="40" as="geometry" />
        </mxCell>
        <mxCell id="lI2HxheBC4uDuuJV-x3l-40" value="Order Index: 1" style="rounded=1;whiteSpace=wrap;html=1;" vertex="1" parent="1">
          <mxGeometry x="10" y="2705" width="90" height="30" as="geometry" />
        </mxCell>
        <mxCell id="lI2HxheBC4uDuuJV-x3l-41" value="Order Index: 1" style="rounded=1;whiteSpace=wrap;html=1;" vertex="1" parent="1">
          <mxGeometry x="80" y="2785" width="90" height="30" as="geometry" />
        </mxCell>
        <mxCell id="lI2HxheBC4uDuuJV-x3l-42" value="Order Index: 1" style="rounded=1;whiteSpace=wrap;html=1;" vertex="1" parent="1">
          <mxGeometry x="80" y="2865" width="90" height="30" as="geometry" />
        </mxCell>
        <mxCell id="lI2HxheBC4uDuuJV-x3l-43" value="Order Index: 2" style="rounded=1;whiteSpace=wrap;html=1;" vertex="1" parent="1">
          <mxGeometry x="80" y="2945" width="90" height="30" as="geometry" />
        </mxCell>
        <mxCell id="lI2HxheBC4uDuuJV-x3l-44" value="Top Activity 3" style="whiteSpace=wrap;align=center;verticalAlign=middle;fontStyle=1;strokeWidth=3;fillColor=#FFFFCC" vertex="1" parent="1">
          <mxGeometry x="240" y="2700" width="130" height="40" as="geometry" />
        </mxCell>
        <mxCell id="lI2HxheBC4uDuuJV-x3l-45" value="Sub Activity 3-2" style="whiteSpace=wrap;align=center;verticalAlign=middle;fontStyle=1;strokeWidth=3;fillColor=#FFFFCC" vertex="1" parent="1">
          <mxGeometry x="320" y="2860" width="120" height="40" as="geometry" />
        </mxCell>
        <mxCell id="lI2HxheBC4uDuuJV-x3l-46" value="Sub Activity 3-1" style="whiteSpace=wrap;align=center;verticalAlign=middle;fontStyle=1;strokeWidth=3;fillColor=#FFFFCC" vertex="1" parent="1">
          <mxGeometry x="320" y="2780" width="120" height="40" as="geometry" />
        </mxCell>
        <mxCell id="lI2HxheBC4uDuuJV-x3l-47" value="Sub Activity 3-3" style="whiteSpace=wrap;align=center;verticalAlign=middle;fontStyle=1;strokeWidth=3;fillColor=#FFFFCC" vertex="1" parent="1">
          <mxGeometry x="320" y="2940" width="120" height="40" as="geometry" />
        </mxCell>
        <mxCell id="lI2HxheBC4uDuuJV-x3l-48" value="Order Index: 2" style="rounded=1;whiteSpace=wrap;html=1;" vertex="1" parent="1">
          <mxGeometry x="370" y="2705" width="90" height="30" as="geometry" />
        </mxCell>
        <mxCell id="lI2HxheBC4uDuuJV-x3l-49" value="Order Index: 1" style="rounded=1;whiteSpace=wrap;html=1;" vertex="1" parent="1">
          <mxGeometry x="440" y="2785" width="90" height="30" as="geometry" />
        </mxCell>
        <mxCell id="lI2HxheBC4uDuuJV-x3l-50" value="Order Index: 2" style="rounded=1;whiteSpace=wrap;html=1;" vertex="1" parent="1">
          <mxGeometry x="440" y="2865" width="90" height="30" as="geometry" />
        </mxCell>
        <mxCell id="lI2HxheBC4uDuuJV-x3l-51" value="Order Index: 2" style="rounded=1;whiteSpace=wrap;html=1;" vertex="1" parent="1">
          <mxGeometry x="440" y="2945" width="90" height="30" as="geometry" />
        </mxCell>
        <mxCell id="lI2HxheBC4uDuuJV-x3l-52" value="Top Activity 1" style="whiteSpace=wrap;align=center;verticalAlign=middle;fontStyle=1;strokeWidth=3;fillColor=#99FFCC;" vertex="1" parent="1">
          <mxGeometry x="-480" y="3060" width="130" height="40" as="geometry" />
        </mxCell>
        <mxCell id="lI2HxheBC4uDuuJV-x3l-53" value="" style="edgeStyle=orthogonalEdgeStyle;rounded=0;orthogonalLoop=1;jettySize=auto;html=1;" edge="1" parent="1" source="lI2HxheBC4uDuuJV-x3l-54" target="lI2HxheBC4uDuuJV-x3l-55">
          <mxGeometry relative="1" as="geometry" />
        </mxCell>
        <mxCell id="lI2HxheBC4uDuuJV-x3l-54" value="Sub Activity 1-2" style="whiteSpace=wrap;align=center;verticalAlign=middle;fontStyle=1;strokeWidth=3;fillColor=#99FFFF;" vertex="1" parent="1">
          <mxGeometry x="-400" y="3220" width="120" height="40" as="geometry" />
        </mxCell>
        <mxCell id="lI2HxheBC4uDuuJV-x3l-55" value="Sub Activity 1-1" style="whiteSpace=wrap;align=center;verticalAlign=middle;fontStyle=1;strokeWidth=3;fillColor=#99FFCC;" vertex="1" parent="1">
          <mxGeometry x="-400" y="3140" width="120" height="40" as="geometry" />
        </mxCell>
        <mxCell id="lI2HxheBC4uDuuJV-x3l-56" value="Sub Activity 1-3" style="whiteSpace=wrap;align=center;verticalAlign=middle;fontStyle=1;strokeWidth=3;fillColor=#FFFFCC;" vertex="1" parent="1">
          <mxGeometry x="-400" y="3300" width="120" height="40" as="geometry" />
        </mxCell>
        <mxCell id="lI2HxheBC4uDuuJV-x3l-57" value="Order Index: 1" style="rounded=1;whiteSpace=wrap;html=1;" vertex="1" parent="1">
          <mxGeometry x="-350" y="3065" width="90" height="30" as="geometry" />
        </mxCell>
        <mxCell id="lI2HxheBC4uDuuJV-x3l-58" value="Order Index: 1" style="rounded=1;whiteSpace=wrap;html=1;" vertex="1" parent="1">
          <mxGeometry x="-280" y="3145" width="90" height="30" as="geometry" />
        </mxCell>
        <mxCell id="lI2HxheBC4uDuuJV-x3l-59" value="Order Index: 2" style="rounded=1;whiteSpace=wrap;html=1;" vertex="1" parent="1">
          <mxGeometry x="-280" y="3225" width="90" height="30" as="geometry" />
        </mxCell>
        <mxCell id="lI2HxheBC4uDuuJV-x3l-60" value="Order Index: 3" style="rounded=1;whiteSpace=wrap;html=1;" vertex="1" parent="1">
          <mxGeometry x="-280" y="3305" width="90" height="30" as="geometry" />
        </mxCell>
        <mxCell id="lI2HxheBC4uDuuJV-x3l-61" value="Top Activity 2" style="whiteSpace=wrap;align=center;verticalAlign=middle;fontStyle=1;strokeWidth=3;fillColor=#99FFCC;" vertex="1" parent="1">
          <mxGeometry x="-120" y="3060" width="130" height="40" as="geometry" />
        </mxCell>
        <mxCell id="lI2HxheBC4uDuuJV-x3l-62" value="Sub Activity 2-2" style="whiteSpace=wrap;align=center;verticalAlign=middle;fontStyle=1;strokeWidth=3;fillColor=#99FFFF;" vertex="1" parent="1">
          <mxGeometry x="-40" y="3220" width="120" height="40" as="geometry" />
        </mxCell>
        <mxCell id="lI2HxheBC4uDuuJV-x3l-63" value="Sub Activity 2-1" style="whiteSpace=wrap;align=center;verticalAlign=middle;fontStyle=1;strokeWidth=3;fillColor=#99FFFF;" vertex="1" parent="1">
          <mxGeometry x="-40" y="3140" width="120" height="40" as="geometry" />
        </mxCell>
        <mxCell id="lI2HxheBC4uDuuJV-x3l-64" value="Sub Activity 2-3" style="whiteSpace=wrap;align=center;verticalAlign=middle;fontStyle=1;strokeWidth=3;fillColor=#FFFFCC;" vertex="1" parent="1">
          <mxGeometry x="-40" y="3300" width="120" height="40" as="geometry" />
        </mxCell>
        <mxCell id="lI2HxheBC4uDuuJV-x3l-65" value="Order Index: 1" style="rounded=1;whiteSpace=wrap;html=1;" vertex="1" parent="1">
          <mxGeometry x="10" y="3065" width="90" height="30" as="geometry" />
        </mxCell>
        <mxCell id="lI2HxheBC4uDuuJV-x3l-66" value="Order Index: 1" style="rounded=1;whiteSpace=wrap;html=1;" vertex="1" parent="1">
          <mxGeometry x="80" y="3145" width="90" height="30" as="geometry" />
        </mxCell>
        <mxCell id="lI2HxheBC4uDuuJV-x3l-67" value="Order Index: 1" style="rounded=1;whiteSpace=wrap;html=1;" vertex="1" parent="1">
          <mxGeometry x="80" y="3225" width="90" height="30" as="geometry" />
        </mxCell>
        <mxCell id="lI2HxheBC4uDuuJV-x3l-68" value="Order Index: 2" style="rounded=1;whiteSpace=wrap;html=1;" vertex="1" parent="1">
          <mxGeometry x="80" y="3305" width="90" height="30" as="geometry" />
        </mxCell>
        <mxCell id="lI2HxheBC4uDuuJV-x3l-69" value="Top Activity 3" style="whiteSpace=wrap;align=center;verticalAlign=middle;fontStyle=1;strokeWidth=3;fillColor=#FFFFCC" vertex="1" parent="1">
          <mxGeometry x="240" y="3060" width="130" height="40" as="geometry" />
        </mxCell>
        <mxCell id="lI2HxheBC4uDuuJV-x3l-70" value="Sub Activity 3-2" style="whiteSpace=wrap;align=center;verticalAlign=middle;fontStyle=1;strokeWidth=3;fillColor=#FFFFCC" vertex="1" parent="1">
          <mxGeometry x="320" y="3220" width="120" height="40" as="geometry" />
        </mxCell>
        <mxCell id="lI2HxheBC4uDuuJV-x3l-71" value="Sub Activity 3-1" style="whiteSpace=wrap;align=center;verticalAlign=middle;fontStyle=1;strokeWidth=3;fillColor=#FFFFCC" vertex="1" parent="1">
          <mxGeometry x="320" y="3140" width="120" height="40" as="geometry" />
        </mxCell>
        <mxCell id="lI2HxheBC4uDuuJV-x3l-72" value="Sub Activity 3-3" style="whiteSpace=wrap;align=center;verticalAlign=middle;fontStyle=1;strokeWidth=3;fillColor=#FFFFCC" vertex="1" parent="1">
          <mxGeometry x="320" y="3300" width="120" height="40" as="geometry" />
        </mxCell>
        <mxCell id="lI2HxheBC4uDuuJV-x3l-73" value="Order Index: 2" style="rounded=1;whiteSpace=wrap;html=1;" vertex="1" parent="1">
          <mxGeometry x="370" y="3065" width="90" height="30" as="geometry" />
        </mxCell>
        <mxCell id="lI2HxheBC4uDuuJV-x3l-74" value="Order Index: 1" style="rounded=1;whiteSpace=wrap;html=1;" vertex="1" parent="1">
          <mxGeometry x="440" y="3145" width="90" height="30" as="geometry" />
        </mxCell>
        <mxCell id="lI2HxheBC4uDuuJV-x3l-75" value="Order Index: 2" style="rounded=1;whiteSpace=wrap;html=1;" vertex="1" parent="1">
          <mxGeometry x="440" y="3225" width="90" height="30" as="geometry" />
        </mxCell>
        <mxCell id="lI2HxheBC4uDuuJV-x3l-76" value="Order Index: 2" style="rounded=1;whiteSpace=wrap;html=1;" vertex="1" parent="1">
          <mxGeometry x="440" y="3305" width="90" height="30" as="geometry" />
        </mxCell>
        <mxCell id="lI2HxheBC4uDuuJV-x3l-77" value="Top Activity 1" style="whiteSpace=wrap;align=center;verticalAlign=middle;fontStyle=1;strokeWidth=3;fillColor=#99FFCC;" vertex="1" parent="1">
          <mxGeometry x="-480" y="3420" width="130" height="40" as="geometry" />
        </mxCell>
        <mxCell id="lI2HxheBC4uDuuJV-x3l-78" value="" style="edgeStyle=orthogonalEdgeStyle;rounded=0;orthogonalLoop=1;jettySize=auto;html=1;" edge="1" parent="1" source="lI2HxheBC4uDuuJV-x3l-79" target="lI2HxheBC4uDuuJV-x3l-80">
          <mxGeometry relative="1" as="geometry" />
        </mxCell>
        <mxCell id="lI2HxheBC4uDuuJV-x3l-79" value="Sub Activity 1-2" style="whiteSpace=wrap;align=center;verticalAlign=middle;fontStyle=1;strokeWidth=3;fillColor=#99FFCC;" vertex="1" parent="1">
          <mxGeometry x="-400" y="3580" width="120" height="40" as="geometry" />
        </mxCell>
        <mxCell id="lI2HxheBC4uDuuJV-x3l-80" value="Sub Activity 1-1" style="whiteSpace=wrap;align=center;verticalAlign=middle;fontStyle=1;strokeWidth=3;fillColor=#99FFCC;" vertex="1" parent="1">
          <mxGeometry x="-400" y="3500" width="120" height="40" as="geometry" />
        </mxCell>
        <mxCell id="lI2HxheBC4uDuuJV-x3l-81" value="Sub Activity 1-3" style="whiteSpace=wrap;align=center;verticalAlign=middle;fontStyle=1;strokeWidth=3;fillColor=#99FFFF;" vertex="1" parent="1">
          <mxGeometry x="-400" y="3660" width="120" height="40" as="geometry" />
        </mxCell>
        <mxCell id="lI2HxheBC4uDuuJV-x3l-82" value="Order Index: 1" style="rounded=1;whiteSpace=wrap;html=1;" vertex="1" parent="1">
          <mxGeometry x="-350" y="3425" width="90" height="30" as="geometry" />
        </mxCell>
        <mxCell id="lI2HxheBC4uDuuJV-x3l-83" value="Order Index: 1" style="rounded=1;whiteSpace=wrap;html=1;" vertex="1" parent="1">
          <mxGeometry x="-280" y="3505" width="90" height="30" as="geometry" />
        </mxCell>
        <mxCell id="lI2HxheBC4uDuuJV-x3l-84" value="Order Index: 2" style="rounded=1;whiteSpace=wrap;html=1;" vertex="1" parent="1">
          <mxGeometry x="-280" y="3585" width="90" height="30" as="geometry" />
        </mxCell>
        <mxCell id="lI2HxheBC4uDuuJV-x3l-85" value="Order Index: 3" style="rounded=1;whiteSpace=wrap;html=1;" vertex="1" parent="1">
          <mxGeometry x="-280" y="3665" width="90" height="30" as="geometry" />
        </mxCell>
        <mxCell id="lI2HxheBC4uDuuJV-x3l-86" value="Top Activity 2" style="whiteSpace=wrap;align=center;verticalAlign=middle;fontStyle=1;strokeWidth=3;fillColor=#99FFCC;" vertex="1" parent="1">
          <mxGeometry x="-120" y="3420" width="130" height="40" as="geometry" />
        </mxCell>
        <mxCell id="lI2HxheBC4uDuuJV-x3l-87" value="Sub Activity 2-2" style="whiteSpace=wrap;align=center;verticalAlign=middle;fontStyle=1;strokeWidth=3;fillColor=#99FFCC;" vertex="1" parent="1">
          <mxGeometry x="-40" y="3580" width="120" height="40" as="geometry" />
        </mxCell>
        <mxCell id="lI2HxheBC4uDuuJV-x3l-88" value="Sub Activity 2-1" style="whiteSpace=wrap;align=center;verticalAlign=middle;fontStyle=1;strokeWidth=3;fillColor=#99FFCC;" vertex="1" parent="1">
          <mxGeometry x="-40" y="3500" width="120" height="40" as="geometry" />
        </mxCell>
        <mxCell id="lI2HxheBC4uDuuJV-x3l-89" value="Sub Activity 2-3" style="whiteSpace=wrap;align=center;verticalAlign=middle;fontStyle=1;strokeWidth=3;fillColor=#99FFFF;" vertex="1" parent="1">
          <mxGeometry x="-40" y="3660" width="120" height="40" as="geometry" />
        </mxCell>
        <mxCell id="lI2HxheBC4uDuuJV-x3l-90" value="Order Index: 1" style="rounded=1;whiteSpace=wrap;html=1;" vertex="1" parent="1">
          <mxGeometry x="10" y="3425" width="90" height="30" as="geometry" />
        </mxCell>
        <mxCell id="lI2HxheBC4uDuuJV-x3l-91" value="Order Index: 1" style="rounded=1;whiteSpace=wrap;html=1;" vertex="1" parent="1">
          <mxGeometry x="80" y="3505" width="90" height="30" as="geometry" />
        </mxCell>
        <mxCell id="lI2HxheBC4uDuuJV-x3l-92" value="Order Index: 1" style="rounded=1;whiteSpace=wrap;html=1;" vertex="1" parent="1">
          <mxGeometry x="80" y="3585" width="90" height="30" as="geometry" />
        </mxCell>
        <mxCell id="lI2HxheBC4uDuuJV-x3l-93" value="Order Index: 2" style="rounded=1;whiteSpace=wrap;html=1;" vertex="1" parent="1">
          <mxGeometry x="80" y="3665" width="90" height="30" as="geometry" />
        </mxCell>
        <mxCell id="lI2HxheBC4uDuuJV-x3l-94" value="Top Activity 3" style="whiteSpace=wrap;align=center;verticalAlign=middle;fontStyle=1;strokeWidth=3;fillColor=#FFFFCC" vertex="1" parent="1">
          <mxGeometry x="240" y="3420" width="130" height="40" as="geometry" />
        </mxCell>
        <mxCell id="lI2HxheBC4uDuuJV-x3l-95" value="Sub Activity 3-2" style="whiteSpace=wrap;align=center;verticalAlign=middle;fontStyle=1;strokeWidth=3;fillColor=#FFFFCC" vertex="1" parent="1">
          <mxGeometry x="320" y="3580" width="120" height="40" as="geometry" />
        </mxCell>
        <mxCell id="lI2HxheBC4uDuuJV-x3l-96" value="Sub Activity 3-1" style="whiteSpace=wrap;align=center;verticalAlign=middle;fontStyle=1;strokeWidth=3;fillColor=#FFFFCC" vertex="1" parent="1">
          <mxGeometry x="320" y="3500" width="120" height="40" as="geometry" />
        </mxCell>
        <mxCell id="lI2HxheBC4uDuuJV-x3l-97" value="Sub Activity 3-3" style="whiteSpace=wrap;align=center;verticalAlign=middle;fontStyle=1;strokeWidth=3;fillColor=#FFFFCC" vertex="1" parent="1">
          <mxGeometry x="320" y="3660" width="120" height="40" as="geometry" />
        </mxCell>
        <mxCell id="lI2HxheBC4uDuuJV-x3l-98" value="Order Index: 2" style="rounded=1;whiteSpace=wrap;html=1;" vertex="1" parent="1">
          <mxGeometry x="370" y="3425" width="90" height="30" as="geometry" />
        </mxCell>
        <mxCell id="lI2HxheBC4uDuuJV-x3l-99" value="Order Index: 1" style="rounded=1;whiteSpace=wrap;html=1;" vertex="1" parent="1">
          <mxGeometry x="440" y="3505" width="90" height="30" as="geometry" />
        </mxCell>
        <mxCell id="lI2HxheBC4uDuuJV-x3l-100" value="Order Index: 2" style="rounded=1;whiteSpace=wrap;html=1;" vertex="1" parent="1">
          <mxGeometry x="440" y="3585" width="90" height="30" as="geometry" />
        </mxCell>
        <mxCell id="lI2HxheBC4uDuuJV-x3l-101" value="Order Index: 2" style="rounded=1;whiteSpace=wrap;html=1;" vertex="1" parent="1">
          <mxGeometry x="440" y="3665" width="90" height="30" as="geometry" />
        </mxCell>
        <mxCell id="lI2HxheBC4uDuuJV-x3l-102" value="Top Activity 1" style="whiteSpace=wrap;align=center;verticalAlign=middle;fontStyle=1;strokeWidth=3;fillColor=#99FFCC;" vertex="1" parent="1">
          <mxGeometry x="-480" y="3780" width="130" height="40" as="geometry" />
        </mxCell>
        <mxCell id="lI2HxheBC4uDuuJV-x3l-103" value="" style="edgeStyle=orthogonalEdgeStyle;rounded=0;orthogonalLoop=1;jettySize=auto;html=1;" edge="1" parent="1" source="lI2HxheBC4uDuuJV-x3l-104" target="lI2HxheBC4uDuuJV-x3l-105">
          <mxGeometry relative="1" as="geometry" />
        </mxCell>
        <mxCell id="lI2HxheBC4uDuuJV-x3l-104" value="Sub Activity 1-2" style="whiteSpace=wrap;align=center;verticalAlign=middle;fontStyle=1;strokeWidth=3;fillColor=#99FFCC;" vertex="1" parent="1">
          <mxGeometry x="-400" y="3940" width="120" height="40" as="geometry" />
        </mxCell>
        <mxCell id="lI2HxheBC4uDuuJV-x3l-105" value="Sub Activity 1-1" style="whiteSpace=wrap;align=center;verticalAlign=middle;fontStyle=1;strokeWidth=3;fillColor=#99FFCC;" vertex="1" parent="1">
          <mxGeometry x="-400" y="3860" width="120" height="40" as="geometry" />
        </mxCell>
        <mxCell id="lI2HxheBC4uDuuJV-x3l-106" value="Sub Activity 1-3" style="whiteSpace=wrap;align=center;verticalAlign=middle;fontStyle=1;strokeWidth=3;fillColor=#99FFCC;" vertex="1" parent="1">
          <mxGeometry x="-400" y="4020" width="120" height="40" as="geometry" />
        </mxCell>
        <mxCell id="lI2HxheBC4uDuuJV-x3l-107" value="Order Index: 1" style="rounded=1;whiteSpace=wrap;html=1;" vertex="1" parent="1">
          <mxGeometry x="-350" y="3785" width="90" height="30" as="geometry" />
        </mxCell>
        <mxCell id="lI2HxheBC4uDuuJV-x3l-108" value="Order Index: 1" style="rounded=1;whiteSpace=wrap;html=1;" vertex="1" parent="1">
          <mxGeometry x="-280" y="3865" width="90" height="30" as="geometry" />
        </mxCell>
        <mxCell id="lI2HxheBC4uDuuJV-x3l-109" value="Order Index: 2" style="rounded=1;whiteSpace=wrap;html=1;" vertex="1" parent="1">
          <mxGeometry x="-280" y="3945" width="90" height="30" as="geometry" />
        </mxCell>
        <mxCell id="lI2HxheBC4uDuuJV-x3l-110" value="Order Index: 3" style="rounded=1;whiteSpace=wrap;html=1;" vertex="1" parent="1">
          <mxGeometry x="-280" y="4025" width="90" height="30" as="geometry" />
        </mxCell>
        <mxCell id="lI2HxheBC4uDuuJV-x3l-111" value="Top Activity 2" style="whiteSpace=wrap;align=center;verticalAlign=middle;fontStyle=1;strokeWidth=3;fillColor=#99FFCC;" vertex="1" parent="1">
          <mxGeometry x="-120" y="3780" width="130" height="40" as="geometry" />
        </mxCell>
        <mxCell id="lI2HxheBC4uDuuJV-x3l-112" value="Sub Activity 2-2" style="whiteSpace=wrap;align=center;verticalAlign=middle;fontStyle=1;strokeWidth=3;fillColor=#99FFCC;" vertex="1" parent="1">
          <mxGeometry x="-40" y="3940" width="120" height="40" as="geometry" />
        </mxCell>
        <mxCell id="lI2HxheBC4uDuuJV-x3l-113" value="Sub Activity 2-1" style="whiteSpace=wrap;align=center;verticalAlign=middle;fontStyle=1;strokeWidth=3;fillColor=#99FFCC;" vertex="1" parent="1">
          <mxGeometry x="-40" y="3860" width="120" height="40" as="geometry" />
        </mxCell>
        <mxCell id="lI2HxheBC4uDuuJV-x3l-114" value="Sub Activity 2-3" style="whiteSpace=wrap;align=center;verticalAlign=middle;fontStyle=1;strokeWidth=3;fillColor=#99FFCC;" vertex="1" parent="1">
          <mxGeometry x="-40" y="4020" width="120" height="40" as="geometry" />
        </mxCell>
        <mxCell id="lI2HxheBC4uDuuJV-x3l-115" value="Order Index: 1" style="rounded=1;whiteSpace=wrap;html=1;" vertex="1" parent="1">
          <mxGeometry x="10" y="3785" width="90" height="30" as="geometry" />
        </mxCell>
        <mxCell id="lI2HxheBC4uDuuJV-x3l-116" value="Order Index: 1" style="rounded=1;whiteSpace=wrap;html=1;" vertex="1" parent="1">
          <mxGeometry x="80" y="3865" width="90" height="30" as="geometry" />
        </mxCell>
        <mxCell id="lI2HxheBC4uDuuJV-x3l-117" value="Order Index: 1" style="rounded=1;whiteSpace=wrap;html=1;" vertex="1" parent="1">
          <mxGeometry x="80" y="3945" width="90" height="30" as="geometry" />
        </mxCell>
        <mxCell id="lI2HxheBC4uDuuJV-x3l-118" value="Order Index: 2" style="rounded=1;whiteSpace=wrap;html=1;" vertex="1" parent="1">
          <mxGeometry x="80" y="4025" width="90" height="30" as="geometry" />
        </mxCell>
        <mxCell id="lI2HxheBC4uDuuJV-x3l-119" value="Top Activity 3" style="whiteSpace=wrap;align=center;verticalAlign=middle;fontStyle=1;strokeWidth=3;fillColor=#99FFFF;" vertex="1" parent="1">
          <mxGeometry x="240" y="3780" width="130" height="40" as="geometry" />
        </mxCell>
        <mxCell id="lI2HxheBC4uDuuJV-x3l-120" value="Sub Activity 3-2" style="whiteSpace=wrap;align=center;verticalAlign=middle;fontStyle=1;strokeWidth=3;fillColor=#FFFFCC" vertex="1" parent="1">
          <mxGeometry x="320" y="3940" width="120" height="40" as="geometry" />
        </mxCell>
        <mxCell id="lI2HxheBC4uDuuJV-x3l-121" value="Sub Activity 3-1" style="whiteSpace=wrap;align=center;verticalAlign=middle;fontStyle=1;strokeWidth=3;fillColor=#FFFFCC" vertex="1" parent="1">
          <mxGeometry x="320" y="3860" width="120" height="40" as="geometry" />
        </mxCell>
        <mxCell id="lI2HxheBC4uDuuJV-x3l-122" value="Sub Activity 3-3" style="whiteSpace=wrap;align=center;verticalAlign=middle;fontStyle=1;strokeWidth=3;fillColor=#FFFFCC" vertex="1" parent="1">
          <mxGeometry x="320" y="4020" width="120" height="40" as="geometry" />
        </mxCell>
        <mxCell id="lI2HxheBC4uDuuJV-x3l-123" value="Order Index: 2" style="rounded=1;whiteSpace=wrap;html=1;" vertex="1" parent="1">
          <mxGeometry x="370" y="3785" width="90" height="30" as="geometry" />
        </mxCell>
        <mxCell id="lI2HxheBC4uDuuJV-x3l-124" value="Order Index: 1" style="rounded=1;whiteSpace=wrap;html=1;" vertex="1" parent="1">
          <mxGeometry x="440" y="3865" width="90" height="30" as="geometry" />
        </mxCell>
        <mxCell id="lI2HxheBC4uDuuJV-x3l-125" value="Order Index: 2" style="rounded=1;whiteSpace=wrap;html=1;" vertex="1" parent="1">
          <mxGeometry x="440" y="3945" width="90" height="30" as="geometry" />
        </mxCell>
        <mxCell id="lI2HxheBC4uDuuJV-x3l-126" value="Order Index: 2" style="rounded=1;whiteSpace=wrap;html=1;" vertex="1" parent="1">
          <mxGeometry x="440" y="4025" width="90" height="30" as="geometry" />
        </mxCell>
        <mxCell id="lI2HxheBC4uDuuJV-x3l-127" value="Top Activity 1" style="whiteSpace=wrap;align=center;verticalAlign=middle;fontStyle=1;strokeWidth=3;fillColor=#99FFCC;" vertex="1" parent="1">
          <mxGeometry x="-480" y="4140" width="130" height="40" as="geometry" />
        </mxCell>
        <mxCell id="lI2HxheBC4uDuuJV-x3l-128" value="" style="edgeStyle=orthogonalEdgeStyle;rounded=0;orthogonalLoop=1;jettySize=auto;html=1;" edge="1" parent="1" source="lI2HxheBC4uDuuJV-x3l-129" target="lI2HxheBC4uDuuJV-x3l-130">
          <mxGeometry relative="1" as="geometry" />
        </mxCell>
        <mxCell id="lI2HxheBC4uDuuJV-x3l-129" value="Sub Activity 1-2" style="whiteSpace=wrap;align=center;verticalAlign=middle;fontStyle=1;strokeWidth=3;fillColor=#99FFCC;" vertex="1" parent="1">
          <mxGeometry x="-400" y="4300" width="120" height="40" as="geometry" />
        </mxCell>
        <mxCell id="lI2HxheBC4uDuuJV-x3l-130" value="Sub Activity 1-1" style="whiteSpace=wrap;align=center;verticalAlign=middle;fontStyle=1;strokeWidth=3;fillColor=#99FFCC;" vertex="1" parent="1">
          <mxGeometry x="-400" y="4220" width="120" height="40" as="geometry" />
        </mxCell>
        <mxCell id="lI2HxheBC4uDuuJV-x3l-131" value="Sub Activity 1-3" style="whiteSpace=wrap;align=center;verticalAlign=middle;fontStyle=1;strokeWidth=3;fillColor=#99FFCC;" vertex="1" parent="1">
          <mxGeometry x="-400" y="4380" width="120" height="40" as="geometry" />
        </mxCell>
        <mxCell id="lI2HxheBC4uDuuJV-x3l-132" value="Order Index: 1" style="rounded=1;whiteSpace=wrap;html=1;" vertex="1" parent="1">
          <mxGeometry x="-350" y="4145" width="90" height="30" as="geometry" />
        </mxCell>
        <mxCell id="lI2HxheBC4uDuuJV-x3l-133" value="Order Index: 1" style="rounded=1;whiteSpace=wrap;html=1;" vertex="1" parent="1">
          <mxGeometry x="-280" y="4225" width="90" height="30" as="geometry" />
        </mxCell>
        <mxCell id="lI2HxheBC4uDuuJV-x3l-134" value="Order Index: 2" style="rounded=1;whiteSpace=wrap;html=1;" vertex="1" parent="1">
          <mxGeometry x="-280" y="4305" width="90" height="30" as="geometry" />
        </mxCell>
        <mxCell id="lI2HxheBC4uDuuJV-x3l-135" value="Order Index: 3" style="rounded=1;whiteSpace=wrap;html=1;" vertex="1" parent="1">
          <mxGeometry x="-280" y="4385" width="90" height="30" as="geometry" />
        </mxCell>
        <mxCell id="lI2HxheBC4uDuuJV-x3l-136" value="Top Activity 2" style="whiteSpace=wrap;align=center;verticalAlign=middle;fontStyle=1;strokeWidth=3;fillColor=#99FFCC;" vertex="1" parent="1">
          <mxGeometry x="-120" y="4140" width="130" height="40" as="geometry" />
        </mxCell>
        <mxCell id="lI2HxheBC4uDuuJV-x3l-137" value="Sub Activity 2-2" style="whiteSpace=wrap;align=center;verticalAlign=middle;fontStyle=1;strokeWidth=3;fillColor=#99FFCC;" vertex="1" parent="1">
          <mxGeometry x="-40" y="4300" width="120" height="40" as="geometry" />
        </mxCell>
        <mxCell id="lI2HxheBC4uDuuJV-x3l-138" value="Sub Activity 2-1" style="whiteSpace=wrap;align=center;verticalAlign=middle;fontStyle=1;strokeWidth=3;fillColor=#99FFCC;" vertex="1" parent="1">
          <mxGeometry x="-40" y="4220" width="120" height="40" as="geometry" />
        </mxCell>
        <mxCell id="lI2HxheBC4uDuuJV-x3l-139" value="Sub Activity 2-3" style="whiteSpace=wrap;align=center;verticalAlign=middle;fontStyle=1;strokeWidth=3;fillColor=#99FFCC;" vertex="1" parent="1">
          <mxGeometry x="-40" y="4380" width="120" height="40" as="geometry" />
        </mxCell>
        <mxCell id="lI2HxheBC4uDuuJV-x3l-140" value="Order Index: 1" style="rounded=1;whiteSpace=wrap;html=1;" vertex="1" parent="1">
          <mxGeometry x="10" y="4145" width="90" height="30" as="geometry" />
        </mxCell>
        <mxCell id="lI2HxheBC4uDuuJV-x3l-141" value="Order Index: 1" style="rounded=1;whiteSpace=wrap;html=1;" vertex="1" parent="1">
          <mxGeometry x="80" y="4225" width="90" height="30" as="geometry" />
        </mxCell>
        <mxCell id="lI2HxheBC4uDuuJV-x3l-142" value="Order Index: 1" style="rounded=1;whiteSpace=wrap;html=1;" vertex="1" parent="1">
          <mxGeometry x="80" y="4305" width="90" height="30" as="geometry" />
        </mxCell>
        <mxCell id="lI2HxheBC4uDuuJV-x3l-143" value="Order Index: 2" style="rounded=1;whiteSpace=wrap;html=1;" vertex="1" parent="1">
          <mxGeometry x="80" y="4385" width="90" height="30" as="geometry" />
        </mxCell>
        <mxCell id="lI2HxheBC4uDuuJV-x3l-144" value="Top Activity 3" style="whiteSpace=wrap;align=center;verticalAlign=middle;fontStyle=1;strokeWidth=3;fillColor=#99FFCC;" vertex="1" parent="1">
          <mxGeometry x="240" y="4140" width="130" height="40" as="geometry" />
        </mxCell>
        <mxCell id="lI2HxheBC4uDuuJV-x3l-145" value="Sub Activity 3-2" style="whiteSpace=wrap;align=center;verticalAlign=middle;fontStyle=1;strokeWidth=3;fillColor=#FFFFCC" vertex="1" parent="1">
          <mxGeometry x="320" y="4300" width="120" height="40" as="geometry" />
        </mxCell>
        <mxCell id="lI2HxheBC4uDuuJV-x3l-146" value="Sub Activity 3-1" style="whiteSpace=wrap;align=center;verticalAlign=middle;fontStyle=1;strokeWidth=3;fillColor=#99FFFF;" vertex="1" parent="1">
          <mxGeometry x="320" y="4220" width="120" height="40" as="geometry" />
        </mxCell>
        <mxCell id="lI2HxheBC4uDuuJV-x3l-147" value="Sub Activity 3-3" style="whiteSpace=wrap;align=center;verticalAlign=middle;fontStyle=1;strokeWidth=3;fillColor=#FFFFCC" vertex="1" parent="1">
          <mxGeometry x="320" y="4380" width="120" height="40" as="geometry" />
        </mxCell>
        <mxCell id="lI2HxheBC4uDuuJV-x3l-148" value="Order Index: 2" style="rounded=1;whiteSpace=wrap;html=1;" vertex="1" parent="1">
          <mxGeometry x="370" y="4145" width="90" height="30" as="geometry" />
        </mxCell>
        <mxCell id="lI2HxheBC4uDuuJV-x3l-149" value="Order Index: 1" style="rounded=1;whiteSpace=wrap;html=1;" vertex="1" parent="1">
          <mxGeometry x="440" y="4225" width="90" height="30" as="geometry" />
        </mxCell>
        <mxCell id="lI2HxheBC4uDuuJV-x3l-150" value="Order Index: 2" style="rounded=1;whiteSpace=wrap;html=1;" vertex="1" parent="1">
          <mxGeometry x="440" y="4305" width="90" height="30" as="geometry" />
        </mxCell>
        <mxCell id="lI2HxheBC4uDuuJV-x3l-151" value="Order Index: 2" style="rounded=1;whiteSpace=wrap;html=1;" vertex="1" parent="1">
          <mxGeometry x="440" y="4385" width="90" height="30" as="geometry" />
        </mxCell>
      </root>
    </mxGraphModel>
  </diagram>
</mxfile>
